ISO-10303-21;
HEADER;
/* Generated by software containing ST-Developer
 * from STEP Tools, Inc. (www.steptools.com) 
 */

FILE_DESCRIPTION(
/* description */ (''),
/* implementation_level */ '2;1');

FILE_NAME(
/* name */ 'Fuet 9.6x9.6.step',
/* time_stamp */ '2025-09-11T23:00:44-10:00',
/* author */ (''),
/* organization */ (''),
/* preprocessor_version */ 'ST-DEVELOPER v20.1',
/* originating_system */ 'Autodesk Translation Framework v14.10.0.0',
/* authorisation */ '');

FILE_SCHEMA (('AUTOMOTIVE_DESIGN { 1 0 10303 214 3 1 1 }'));
ENDSEC;

DATA;
#10=MECHANICAL_DESIGN_GEOMETRIC_PRESENTATION_REPRESENTATION('',(#14,#15,
#16,#17,#18,#19,#20,#21,#22),#939);
#11=SHAPE_REPRESENTATION_RELATIONSHIP('SRR','None',#946,#12);
#12=ADVANCED_BREP_SHAPE_REPRESENTATION('',(#13),#938);
#13=MANIFOLD_SOLID_BREP('Body1',#547);
#14=STYLED_ITEM('',(#957),#535);
#15=STYLED_ITEM('',(#957),#536);
#16=STYLED_ITEM('',(#957),#537);
#17=STYLED_ITEM('',(#957),#538);
#18=STYLED_ITEM('',(#957),#539);
#19=STYLED_ITEM('',(#957),#540);
#20=STYLED_ITEM('',(#958),#541);
#21=STYLED_ITEM('',(#957),#542);
#22=STYLED_ITEM('',(#956),#13);
#23=SPHERICAL_SURFACE('',#568,0.2);
#24=SPHERICAL_SURFACE('',#574,0.2);
#25=SPHERICAL_SURFACE('',#581,0.2);
#26=SPHERICAL_SURFACE('',#587,0.2);
#27=SPHERICAL_SURFACE('',#594,0.2);
#28=CYLINDRICAL_SURFACE('',#566,0.75);
#29=CYLINDRICAL_SURFACE('',#572,0.2);
#30=CYLINDRICAL_SURFACE('',#578,0.2);
#31=CYLINDRICAL_SURFACE('',#580,0.2);
#32=CYLINDRICAL_SURFACE('',#585,0.2);
#33=CYLINDRICAL_SURFACE('',#591,0.2);
#34=CYLINDRICAL_SURFACE('',#593,0.2);
#35=CYLINDRICAL_SURFACE('',#598,0.2);
#36=CYLINDRICAL_SURFACE('',#599,0.2);
#37=CYLINDRICAL_SURFACE('',#600,0.2);
#38=CYLINDRICAL_SURFACE('',#602,0.2);
#39=FACE_BOUND('',#191,.T.);
#40=LINE('',#794,#90);
#41=LINE('',#796,#91);
#42=LINE('',#798,#92);
#43=LINE('',#800,#93);
#44=LINE('',#801,#94);
#45=LINE('',#804,#95);
#46=LINE('',#816,#96);
#47=LINE('',#817,#97);
#48=LINE('',#828,#98);
#49=LINE('',#829,#99);
#50=LINE('',#831,#100);
#51=LINE('',#842,#101);
#52=LINE('',#843,#102);
#53=LINE('',#854,#103);
#54=LINE('',#855,#104);
#55=LINE('',#857,#105);
#56=LINE('',#865,#106);
#57=LINE('',#867,#107);
#58=LINE('',#872,#108);
#59=LINE('',#873,#109);
#60=LINE('',#875,#110);
#61=LINE('',#878,#111);
#62=LINE('',#880,#112);
#63=LINE('',#882,#113);
#64=LINE('',#884,#114);
#65=LINE('',#885,#115);
#66=LINE('',#887,#116);
#67=LINE('',#890,#117);
#68=LINE('',#892,#118);
#69=LINE('',#893,#119);
#70=LINE('',#895,#120);
#71=LINE('',#897,#121);
#72=LINE('',#899,#122);
#73=LINE('',#901,#123);
#74=LINE('',#902,#124);
#75=LINE('',#903,#125);
#76=LINE('',#904,#126);
#77=LINE('',#907,#127);
#78=LINE('',#909,#128);
#79=LINE('',#910,#129);
#80=LINE('',#912,#130);
#81=LINE('',#914,#131);
#82=LINE('',#919,#132);
#83=LINE('',#921,#133);
#84=LINE('',#923,#134);
#85=LINE('',#924,#135);
#86=LINE('',#926,#136);
#87=LINE('',#927,#137);
#88=LINE('',#929,#138);
#89=LINE('',#930,#139);
#90=VECTOR('',#630,10.);
#91=VECTOR('',#631,10.);
#92=VECTOR('',#632,10.);
#93=VECTOR('',#633,10.);
#94=VECTOR('',#634,10.);
#95=VECTOR('',#637,0.75);
#96=VECTOR('',#652,10.);
#97=VECTOR('',#653,10.);
#98=VECTOR('',#666,10.);
#99=VECTOR('',#667,10.);
#100=VECTOR('',#670,10.);
#101=VECTOR('',#683,10.);
#102=VECTOR('',#684,10.);
#103=VECTOR('',#697,10.);
#104=VECTOR('',#698,10.);
#105=VECTOR('',#701,10.);
#106=VECTOR('',#712,10.);
#107=VECTOR('',#715,10.);
#108=VECTOR('',#720,10.);
#109=VECTOR('',#721,10.);
#110=VECTOR('',#724,10.);
#111=VECTOR('',#727,10.);
#112=VECTOR('',#728,10.);
#113=VECTOR('',#729,10.);
#114=VECTOR('',#730,10.);
#115=VECTOR('',#731,10.);
#116=VECTOR('',#734,10.);
#117=VECTOR('',#737,10.);
#118=VECTOR('',#738,10.);
#119=VECTOR('',#739,10.);
#120=VECTOR('',#740,10.);
#121=VECTOR('',#741,10.);
#122=VECTOR('',#742,10.);
#123=VECTOR('',#743,10.);
#124=VECTOR('',#744,10.);
#125=VECTOR('',#745,10.);
#126=VECTOR('',#746,10.);
#127=VECTOR('',#749,10.);
#128=VECTOR('',#750,10.);
#129=VECTOR('',#751,10.);
#130=VECTOR('',#754,10.);
#131=VECTOR('',#757,10.);
#132=VECTOR('',#762,10.);
#133=VECTOR('',#763,10.);
#134=VECTOR('',#764,10.);
#135=VECTOR('',#765,10.);
#136=VECTOR('',#768,10.);
#137=VECTOR('',#769,10.);
#138=VECTOR('',#772,10.);
#139=VECTOR('',#773,10.);
#140=PLANE('',#565);
#141=PLANE('',#603);
#142=PLANE('',#604);
#143=PLANE('',#605);
#144=PLANE('',#606);
#145=PLANE('',#607);
#146=PLANE('',#608);
#147=PLANE('',#609);
#148=PLANE('',#610);
#149=PLANE('',#611);
#150=PLANE('',#612);
#151=PLANE('',#613);
#152=PLANE('',#614);
#153=PLANE('',#615);
#154=PLANE('',#616);
#155=PLANE('',#617);
#156=FACE_OUTER_BOUND('',#189,.T.);
#157=FACE_OUTER_BOUND('',#190,.T.);
#158=FACE_OUTER_BOUND('',#192,.T.);
#159=FACE_OUTER_BOUND('',#193,.T.);
#160=FACE_OUTER_BOUND('',#194,.T.);
#161=FACE_OUTER_BOUND('',#195,.T.);
#162=FACE_OUTER_BOUND('',#196,.T.);
#163=FACE_OUTER_BOUND('',#197,.T.);
#164=FACE_OUTER_BOUND('',#198,.T.);
#165=FACE_OUTER_BOUND('',#199,.T.);
#166=FACE_OUTER_BOUND('',#200,.T.);
#167=FACE_OUTER_BOUND('',#201,.T.);
#168=FACE_OUTER_BOUND('',#202,.T.);
#169=FACE_OUTER_BOUND('',#203,.T.);
#170=FACE_OUTER_BOUND('',#204,.T.);
#171=FACE_OUTER_BOUND('',#205,.T.);
#172=FACE_OUTER_BOUND('',#206,.T.);
#173=FACE_OUTER_BOUND('',#207,.T.);
#174=FACE_OUTER_BOUND('',#208,.T.);
#175=FACE_OUTER_BOUND('',#209,.T.);
#176=FACE_OUTER_BOUND('',#210,.T.);
#177=FACE_OUTER_BOUND('',#211,.T.);
#178=FACE_OUTER_BOUND('',#212,.T.);
#179=FACE_OUTER_BOUND('',#213,.T.);
#180=FACE_OUTER_BOUND('',#214,.T.);
#181=FACE_OUTER_BOUND('',#215,.T.);
#182=FACE_OUTER_BOUND('',#216,.T.);
#183=FACE_OUTER_BOUND('',#217,.T.);
#184=FACE_OUTER_BOUND('',#218,.T.);
#185=FACE_OUTER_BOUND('',#219,.T.);
#186=FACE_OUTER_BOUND('',#220,.T.);
#187=FACE_OUTER_BOUND('',#221,.T.);
#188=FACE_OUTER_BOUND('',#222,.T.);
#189=EDGE_LOOP('',(#365,#366,#367,#368));
#190=EDGE_LOOP('',(#369,#370,#371,#372,#373));
#191=EDGE_LOOP('',(#374));
#192=EDGE_LOOP('',(#375,#376,#377,#378));
#193=EDGE_LOOP('',(#379,#380,#381));
#194=EDGE_LOOP('',(#382,#383,#384,#385));
#195=EDGE_LOOP('',(#386,#387,#388));
#196=EDGE_LOOP('',(#389,#390,#391,#392));
#197=EDGE_LOOP('',(#393,#394,#395,#396));
#198=EDGE_LOOP('',(#397,#398,#399));
#199=EDGE_LOOP('',(#400,#401,#402,#403));
#200=EDGE_LOOP('',(#404,#405,#406));
#201=EDGE_LOOP('',(#407,#408,#409,#410));
#202=EDGE_LOOP('',(#411,#412,#413,#414));
#203=EDGE_LOOP('',(#415,#416,#417));
#204=EDGE_LOOP('',(#418,#419,#420,#421));
#205=EDGE_LOOP('',(#422,#423,#424,#425));
#206=EDGE_LOOP('',(#426,#427,#428,#429));
#207=EDGE_LOOP('',(#430,#431,#432,#433));
#208=EDGE_LOOP('',(#434,#435,#436,#437,#438,#439,#440,#441));
#209=EDGE_LOOP('',(#442,#443,#444,#445));
#210=EDGE_LOOP('',(#446,#447,#448,#449,#450,#451,#452,#453,#454,#455,#456,
#457,#458,#459,#460,#461,#462,#463));
#211=EDGE_LOOP('',(#464,#465,#466,#467));
#212=EDGE_LOOP('',(#468,#469,#470,#471));
#213=EDGE_LOOP('',(#472,#473,#474,#475));
#214=EDGE_LOOP('',(#476,#477,#478,#479));
#215=EDGE_LOOP('',(#480,#481,#482,#483));
#216=EDGE_LOOP('',(#484,#485,#486,#487));
#217=EDGE_LOOP('',(#488,#489,#490,#491));
#218=EDGE_LOOP('',(#492,#493,#494,#495));
#219=EDGE_LOOP('',(#496));
#220=EDGE_LOOP('',(#497,#498,#499,#500));
#221=EDGE_LOOP('',(#501,#502,#503,#504));
#222=EDGE_LOOP('',(#505,#506,#507,#508,#509,#510,#511,#512));
#223=CIRCLE('',#562,0.95);
#224=CIRCLE('',#563,0.2);
#225=CIRCLE('',#564,0.75);
#226=CIRCLE('',#567,0.75);
#227=CIRCLE('',#569,0.2);
#228=CIRCLE('',#570,0.2);
#229=CIRCLE('',#571,0.2);
#230=CIRCLE('',#573,0.2);
#231=CIRCLE('',#575,0.2);
#232=CIRCLE('',#576,0.2);
#233=CIRCLE('',#577,0.2);
#234=CIRCLE('',#579,0.2);
#235=CIRCLE('',#582,0.2);
#236=CIRCLE('',#583,0.2);
#237=CIRCLE('',#584,0.2);
#238=CIRCLE('',#586,0.2);
#239=CIRCLE('',#588,0.2);
#240=CIRCLE('',#589,0.2);
#241=CIRCLE('',#590,0.2);
#242=CIRCLE('',#592,0.2);
#243=CIRCLE('',#595,0.2);
#244=CIRCLE('',#596,0.2);
#245=CIRCLE('',#597,0.200000000000001);
#246=CIRCLE('',#601,0.2);
#247=VERTEX_POINT('',#786);
#248=VERTEX_POINT('',#788);
#249=VERTEX_POINT('',#792);
#250=VERTEX_POINT('',#793);
#251=VERTEX_POINT('',#795);
#252=VERTEX_POINT('',#797);
#253=VERTEX_POINT('',#799);
#254=VERTEX_POINT('',#803);
#255=VERTEX_POINT('',#807);
#256=VERTEX_POINT('',#809);
#257=VERTEX_POINT('',#813);
#258=VERTEX_POINT('',#814);
#259=VERTEX_POINT('',#819);
#260=VERTEX_POINT('',#821);
#261=VERTEX_POINT('',#825);
#262=VERTEX_POINT('',#826);
#263=VERTEX_POINT('',#833);
#264=VERTEX_POINT('',#835);
#265=VERTEX_POINT('',#839);
#266=VERTEX_POINT('',#840);
#267=VERTEX_POINT('',#845);
#268=VERTEX_POINT('',#847);
#269=VERTEX_POINT('',#851);
#270=VERTEX_POINT('',#852);
#271=VERTEX_POINT('',#859);
#272=VERTEX_POINT('',#860);
#273=VERTEX_POINT('',#869);
#274=VERTEX_POINT('',#870);
#275=VERTEX_POINT('',#877);
#276=VERTEX_POINT('',#879);
#277=VERTEX_POINT('',#881);
#278=VERTEX_POINT('',#883);
#279=VERTEX_POINT('',#889);
#280=VERTEX_POINT('',#891);
#281=VERTEX_POINT('',#894);
#282=VERTEX_POINT('',#896);
#283=VERTEX_POINT('',#898);
#284=VERTEX_POINT('',#900);
#285=VERTEX_POINT('',#906);
#286=VERTEX_POINT('',#908);
#287=VERTEX_POINT('',#917);
#288=VERTEX_POINT('',#918);
#289=VERTEX_POINT('',#920);
#290=VERTEX_POINT('',#922);
#291=EDGE_CURVE('',#247,#247,#223,.T.);
#292=EDGE_CURVE('',#247,#248,#224,.T.);
#293=EDGE_CURVE('',#248,#248,#225,.T.);
#294=EDGE_CURVE('',#249,#250,#40,.T.);
#295=EDGE_CURVE('',#251,#249,#41,.T.);
#296=EDGE_CURVE('',#252,#251,#42,.T.);
#297=EDGE_CURVE('',#253,#252,#43,.T.);
#298=EDGE_CURVE('',#250,#253,#44,.T.);
#299=EDGE_CURVE('',#248,#254,#45,.T.);
#300=EDGE_CURVE('',#254,#254,#226,.T.);
#301=EDGE_CURVE('',#255,#249,#227,.F.);
#302=EDGE_CURVE('',#256,#255,#228,.F.);
#303=EDGE_CURVE('',#249,#256,#229,.F.);
#304=EDGE_CURVE('',#257,#258,#230,.T.);
#305=EDGE_CURVE('',#258,#256,#46,.T.);
#306=EDGE_CURVE('',#255,#257,#47,.T.);
#307=EDGE_CURVE('',#259,#250,#231,.F.);
#308=EDGE_CURVE('',#260,#259,#232,.F.);
#309=EDGE_CURVE('',#250,#260,#233,.F.);
#310=EDGE_CURVE('',#261,#262,#234,.T.);
#311=EDGE_CURVE('',#262,#260,#48,.T.);
#312=EDGE_CURVE('',#259,#261,#49,.T.);
#313=EDGE_CURVE('',#260,#255,#50,.T.);
#314=EDGE_CURVE('',#263,#251,#235,.F.);
#315=EDGE_CURVE('',#264,#263,#236,.F.);
#316=EDGE_CURVE('',#251,#264,#237,.F.);
#317=EDGE_CURVE('',#265,#266,#238,.T.);
#318=EDGE_CURVE('',#266,#264,#51,.T.);
#319=EDGE_CURVE('',#263,#265,#52,.T.);
#320=EDGE_CURVE('',#267,#253,#239,.F.);
#321=EDGE_CURVE('',#268,#267,#240,.F.);
#322=EDGE_CURVE('',#253,#268,#241,.F.);
#323=EDGE_CURVE('',#269,#270,#242,.T.);
#324=EDGE_CURVE('',#270,#268,#53,.T.);
#325=EDGE_CURVE('',#267,#269,#54,.T.);
#326=EDGE_CURVE('',#268,#259,#55,.T.);
#327=EDGE_CURVE('',#271,#272,#243,.F.);
#328=EDGE_CURVE('',#252,#271,#244,.F.);
#329=EDGE_CURVE('',#272,#252,#245,.F.);
#330=EDGE_CURVE('',#271,#267,#56,.T.);
#331=EDGE_CURVE('',#264,#272,#57,.T.);
#332=EDGE_CURVE('',#273,#274,#246,.T.);
#333=EDGE_CURVE('',#274,#271,#58,.T.);
#334=EDGE_CURVE('',#272,#273,#59,.T.);
#335=EDGE_CURVE('',#256,#263,#60,.T.);
#336=EDGE_CURVE('',#262,#275,#61,.T.);
#337=EDGE_CURVE('',#275,#276,#62,.T.);
#338=EDGE_CURVE('',#276,#277,#63,.T.);
#339=EDGE_CURVE('',#277,#278,#64,.T.);
#340=EDGE_CURVE('',#278,#257,#65,.T.);
#341=EDGE_CURVE('',#270,#261,#66,.T.);
#342=EDGE_CURVE('',#278,#279,#67,.T.);
#343=EDGE_CURVE('',#279,#280,#68,.T.);
#344=EDGE_CURVE('',#275,#280,#69,.T.);
#345=EDGE_CURVE('',#281,#269,#70,.T.);
#346=EDGE_CURVE('',#281,#282,#71,.T.);
#347=EDGE_CURVE('',#283,#282,#72,.T.);
#348=EDGE_CURVE('',#284,#283,#73,.T.);
#349=EDGE_CURVE('',#274,#284,#74,.T.);
#350=EDGE_CURVE('',#266,#273,#75,.T.);
#351=EDGE_CURVE('',#258,#265,#76,.T.);
#352=EDGE_CURVE('',#276,#285,#77,.T.);
#353=EDGE_CURVE('',#285,#286,#78,.T.);
#354=EDGE_CURVE('',#277,#286,#79,.T.);
#355=EDGE_CURVE('',#280,#285,#80,.T.);
#356=EDGE_CURVE('',#286,#279,#81,.T.);
#357=EDGE_CURVE('',#287,#288,#82,.T.);
#358=EDGE_CURVE('',#287,#289,#83,.T.);
#359=EDGE_CURVE('',#290,#289,#84,.T.);
#360=EDGE_CURVE('',#288,#290,#85,.T.);
#361=EDGE_CURVE('',#288,#281,#86,.T.);
#362=EDGE_CURVE('',#282,#290,#87,.T.);
#363=EDGE_CURVE('',#284,#287,#88,.T.);
#364=EDGE_CURVE('',#289,#283,#89,.T.);
#365=ORIENTED_EDGE('',*,*,#291,.T.);
#366=ORIENTED_EDGE('',*,*,#292,.T.);
#367=ORIENTED_EDGE('',*,*,#293,.T.);
#368=ORIENTED_EDGE('',*,*,#292,.F.);
#369=ORIENTED_EDGE('',*,*,#294,.F.);
#370=ORIENTED_EDGE('',*,*,#295,.F.);
#371=ORIENTED_EDGE('',*,*,#296,.F.);
#372=ORIENTED_EDGE('',*,*,#297,.F.);
#373=ORIENTED_EDGE('',*,*,#298,.F.);
#374=ORIENTED_EDGE('',*,*,#291,.F.);
#375=ORIENTED_EDGE('',*,*,#293,.F.);
#376=ORIENTED_EDGE('',*,*,#299,.T.);
#377=ORIENTED_EDGE('',*,*,#300,.T.);
#378=ORIENTED_EDGE('',*,*,#299,.F.);
#379=ORIENTED_EDGE('',*,*,#301,.F.);
#380=ORIENTED_EDGE('',*,*,#302,.F.);
#381=ORIENTED_EDGE('',*,*,#303,.F.);
#382=ORIENTED_EDGE('',*,*,#304,.T.);
#383=ORIENTED_EDGE('',*,*,#305,.T.);
#384=ORIENTED_EDGE('',*,*,#302,.T.);
#385=ORIENTED_EDGE('',*,*,#306,.T.);
#386=ORIENTED_EDGE('',*,*,#307,.F.);
#387=ORIENTED_EDGE('',*,*,#308,.F.);
#388=ORIENTED_EDGE('',*,*,#309,.F.);
#389=ORIENTED_EDGE('',*,*,#310,.T.);
#390=ORIENTED_EDGE('',*,*,#311,.T.);
#391=ORIENTED_EDGE('',*,*,#308,.T.);
#392=ORIENTED_EDGE('',*,*,#312,.T.);
#393=ORIENTED_EDGE('',*,*,#301,.T.);
#394=ORIENTED_EDGE('',*,*,#294,.T.);
#395=ORIENTED_EDGE('',*,*,#309,.T.);
#396=ORIENTED_EDGE('',*,*,#313,.T.);
#397=ORIENTED_EDGE('',*,*,#314,.F.);
#398=ORIENTED_EDGE('',*,*,#315,.F.);
#399=ORIENTED_EDGE('',*,*,#316,.F.);
#400=ORIENTED_EDGE('',*,*,#317,.T.);
#401=ORIENTED_EDGE('',*,*,#318,.T.);
#402=ORIENTED_EDGE('',*,*,#315,.T.);
#403=ORIENTED_EDGE('',*,*,#319,.T.);
#404=ORIENTED_EDGE('',*,*,#320,.F.);
#405=ORIENTED_EDGE('',*,*,#321,.F.);
#406=ORIENTED_EDGE('',*,*,#322,.F.);
#407=ORIENTED_EDGE('',*,*,#323,.T.);
#408=ORIENTED_EDGE('',*,*,#324,.T.);
#409=ORIENTED_EDGE('',*,*,#321,.T.);
#410=ORIENTED_EDGE('',*,*,#325,.T.);
#411=ORIENTED_EDGE('',*,*,#307,.T.);
#412=ORIENTED_EDGE('',*,*,#298,.T.);
#413=ORIENTED_EDGE('',*,*,#322,.T.);
#414=ORIENTED_EDGE('',*,*,#326,.T.);
#415=ORIENTED_EDGE('',*,*,#327,.F.);
#416=ORIENTED_EDGE('',*,*,#328,.F.);
#417=ORIENTED_EDGE('',*,*,#329,.F.);
#418=ORIENTED_EDGE('',*,*,#320,.T.);
#419=ORIENTED_EDGE('',*,*,#297,.T.);
#420=ORIENTED_EDGE('',*,*,#328,.T.);
#421=ORIENTED_EDGE('',*,*,#330,.T.);
#422=ORIENTED_EDGE('',*,*,#316,.T.);
#423=ORIENTED_EDGE('',*,*,#331,.T.);
#424=ORIENTED_EDGE('',*,*,#329,.T.);
#425=ORIENTED_EDGE('',*,*,#296,.T.);
#426=ORIENTED_EDGE('',*,*,#332,.T.);
#427=ORIENTED_EDGE('',*,*,#333,.T.);
#428=ORIENTED_EDGE('',*,*,#327,.T.);
#429=ORIENTED_EDGE('',*,*,#334,.T.);
#430=ORIENTED_EDGE('',*,*,#314,.T.);
#431=ORIENTED_EDGE('',*,*,#295,.T.);
#432=ORIENTED_EDGE('',*,*,#303,.T.);
#433=ORIENTED_EDGE('',*,*,#335,.T.);
#434=ORIENTED_EDGE('',*,*,#306,.F.);
#435=ORIENTED_EDGE('',*,*,#313,.F.);
#436=ORIENTED_EDGE('',*,*,#311,.F.);
#437=ORIENTED_EDGE('',*,*,#336,.T.);
#438=ORIENTED_EDGE('',*,*,#337,.T.);
#439=ORIENTED_EDGE('',*,*,#338,.T.);
#440=ORIENTED_EDGE('',*,*,#339,.T.);
#441=ORIENTED_EDGE('',*,*,#340,.T.);
#442=ORIENTED_EDGE('',*,*,#312,.F.);
#443=ORIENTED_EDGE('',*,*,#326,.F.);
#444=ORIENTED_EDGE('',*,*,#324,.F.);
#445=ORIENTED_EDGE('',*,*,#341,.T.);
#446=ORIENTED_EDGE('',*,*,#304,.F.);
#447=ORIENTED_EDGE('',*,*,#340,.F.);
#448=ORIENTED_EDGE('',*,*,#342,.T.);
#449=ORIENTED_EDGE('',*,*,#343,.T.);
#450=ORIENTED_EDGE('',*,*,#344,.F.);
#451=ORIENTED_EDGE('',*,*,#336,.F.);
#452=ORIENTED_EDGE('',*,*,#310,.F.);
#453=ORIENTED_EDGE('',*,*,#341,.F.);
#454=ORIENTED_EDGE('',*,*,#323,.F.);
#455=ORIENTED_EDGE('',*,*,#345,.F.);
#456=ORIENTED_EDGE('',*,*,#346,.T.);
#457=ORIENTED_EDGE('',*,*,#347,.F.);
#458=ORIENTED_EDGE('',*,*,#348,.F.);
#459=ORIENTED_EDGE('',*,*,#349,.F.);
#460=ORIENTED_EDGE('',*,*,#332,.F.);
#461=ORIENTED_EDGE('',*,*,#350,.F.);
#462=ORIENTED_EDGE('',*,*,#317,.F.);
#463=ORIENTED_EDGE('',*,*,#351,.F.);
#464=ORIENTED_EDGE('',*,*,#338,.F.);
#465=ORIENTED_EDGE('',*,*,#352,.T.);
#466=ORIENTED_EDGE('',*,*,#353,.T.);
#467=ORIENTED_EDGE('',*,*,#354,.F.);
#468=ORIENTED_EDGE('',*,*,#337,.F.);
#469=ORIENTED_EDGE('',*,*,#344,.T.);
#470=ORIENTED_EDGE('',*,*,#355,.T.);
#471=ORIENTED_EDGE('',*,*,#352,.F.);
#472=ORIENTED_EDGE('',*,*,#339,.F.);
#473=ORIENTED_EDGE('',*,*,#354,.T.);
#474=ORIENTED_EDGE('',*,*,#356,.T.);
#475=ORIENTED_EDGE('',*,*,#342,.F.);
#476=ORIENTED_EDGE('',*,*,#356,.F.);
#477=ORIENTED_EDGE('',*,*,#353,.F.);
#478=ORIENTED_EDGE('',*,*,#355,.F.);
#479=ORIENTED_EDGE('',*,*,#343,.F.);
#480=ORIENTED_EDGE('',*,*,#357,.F.);
#481=ORIENTED_EDGE('',*,*,#358,.T.);
#482=ORIENTED_EDGE('',*,*,#359,.F.);
#483=ORIENTED_EDGE('',*,*,#360,.F.);
#484=ORIENTED_EDGE('',*,*,#361,.F.);
#485=ORIENTED_EDGE('',*,*,#360,.T.);
#486=ORIENTED_EDGE('',*,*,#362,.F.);
#487=ORIENTED_EDGE('',*,*,#346,.F.);
#488=ORIENTED_EDGE('',*,*,#363,.F.);
#489=ORIENTED_EDGE('',*,*,#348,.T.);
#490=ORIENTED_EDGE('',*,*,#364,.F.);
#491=ORIENTED_EDGE('',*,*,#358,.F.);
#492=ORIENTED_EDGE('',*,*,#364,.T.);
#493=ORIENTED_EDGE('',*,*,#347,.T.);
#494=ORIENTED_EDGE('',*,*,#362,.T.);
#495=ORIENTED_EDGE('',*,*,#359,.T.);
#496=ORIENTED_EDGE('',*,*,#300,.F.);
#497=ORIENTED_EDGE('',*,*,#318,.F.);
#498=ORIENTED_EDGE('',*,*,#350,.T.);
#499=ORIENTED_EDGE('',*,*,#334,.F.);
#500=ORIENTED_EDGE('',*,*,#331,.F.);
#501=ORIENTED_EDGE('',*,*,#305,.F.);
#502=ORIENTED_EDGE('',*,*,#351,.T.);
#503=ORIENTED_EDGE('',*,*,#319,.F.);
#504=ORIENTED_EDGE('',*,*,#335,.F.);
#505=ORIENTED_EDGE('',*,*,#333,.F.);
#506=ORIENTED_EDGE('',*,*,#349,.T.);
#507=ORIENTED_EDGE('',*,*,#363,.T.);
#508=ORIENTED_EDGE('',*,*,#357,.T.);
#509=ORIENTED_EDGE('',*,*,#361,.T.);
#510=ORIENTED_EDGE('',*,*,#345,.T.);
#511=ORIENTED_EDGE('',*,*,#325,.F.);
#512=ORIENTED_EDGE('',*,*,#330,.F.);
#513=TOROIDAL_SURFACE('',#561,0.95,0.2);
#514=ADVANCED_FACE('',(#156),#513,.T.);
#515=ADVANCED_FACE('',(#157,#39),#140,.T.);
#516=ADVANCED_FACE('',(#158),#28,.F.);
#517=ADVANCED_FACE('',(#159),#23,.T.);
#518=ADVANCED_FACE('',(#160),#29,.T.);
#519=ADVANCED_FACE('',(#161),#24,.T.);
#520=ADVANCED_FACE('',(#162),#30,.T.);
#521=ADVANCED_FACE('',(#163),#31,.T.);
#522=ADVANCED_FACE('',(#164),#25,.T.);
#523=ADVANCED_FACE('',(#165),#32,.T.);
#524=ADVANCED_FACE('',(#166),#26,.T.);
#525=ADVANCED_FACE('',(#167),#33,.T.);
#526=ADVANCED_FACE('',(#168),#34,.T.);
#527=ADVANCED_FACE('',(#169),#27,.T.);
#528=ADVANCED_FACE('',(#170),#35,.T.);
#529=ADVANCED_FACE('',(#171),#36,.T.);
#530=ADVANCED_FACE('',(#172),#37,.T.);
#531=ADVANCED_FACE('',(#173),#38,.T.);
#532=ADVANCED_FACE('',(#174),#141,.T.);
#533=ADVANCED_FACE('',(#175),#142,.T.);
#534=ADVANCED_FACE('',(#176),#143,.F.);
#535=ADVANCED_FACE('',(#177),#144,.F.);
#536=ADVANCED_FACE('',(#178),#145,.F.);
#537=ADVANCED_FACE('',(#179),#146,.F.);
#538=ADVANCED_FACE('',(#180),#147,.F.);
#539=ADVANCED_FACE('',(#181),#148,.T.);
#540=ADVANCED_FACE('',(#182),#149,.T.);
#541=ADVANCED_FACE('',(#183),#150,.T.);
#542=ADVANCED_FACE('',(#184),#151,.T.);
#543=ADVANCED_FACE('',(#185),#152,.T.);
#544=ADVANCED_FACE('',(#186),#153,.T.);
#545=ADVANCED_FACE('',(#187),#154,.T.);
#546=ADVANCED_FACE('',(#188),#155,.T.);
#547=CLOSED_SHELL('',(#514,#515,#516,#517,#518,#519,#520,#521,#522,#523,
#524,#525,#526,#527,#528,#529,#530,#531,#532,#533,#534,#535,#536,#537,#538,
#539,#540,#541,#542,#543,#544,#545,#546));
#548=DERIVED_UNIT_ELEMENT(#550,1.);
#549=DERIVED_UNIT_ELEMENT(#941,-3.);
#550=(
MASS_UNIT()
NAMED_UNIT(*)
SI_UNIT(.KILO.,.GRAM.)
);
#551=DERIVED_UNIT((#548,#549));
#552=MEASURE_REPRESENTATION_ITEM('density measure',
POSITIVE_RATIO_MEASURE(7850.),#551);
#553=PROPERTY_DEFINITION_REPRESENTATION(#558,#555);
#554=PROPERTY_DEFINITION_REPRESENTATION(#559,#556);
#555=REPRESENTATION('material name',(#557),#938);
#556=REPRESENTATION('density',(#552),#938);
#557=DESCRIPTIVE_REPRESENTATION_ITEM('Steel','Steel');
#558=PROPERTY_DEFINITION('material property','material name',#948);
#559=PROPERTY_DEFINITION('material property','density of part',#948);
#560=AXIS2_PLACEMENT_3D('',#784,#618,#619);
#561=AXIS2_PLACEMENT_3D('',#785,#620,#621);
#562=AXIS2_PLACEMENT_3D('',#787,#622,#623);
#563=AXIS2_PLACEMENT_3D('',#789,#624,#625);
#564=AXIS2_PLACEMENT_3D('',#790,#626,#627);
#565=AXIS2_PLACEMENT_3D('',#791,#628,#629);
#566=AXIS2_PLACEMENT_3D('',#802,#635,#636);
#567=AXIS2_PLACEMENT_3D('',#805,#638,#639);
#568=AXIS2_PLACEMENT_3D('',#806,#640,#641);
#569=AXIS2_PLACEMENT_3D('',#808,#642,#643);
#570=AXIS2_PLACEMENT_3D('',#810,#644,#645);
#571=AXIS2_PLACEMENT_3D('',#811,#646,#647);
#572=AXIS2_PLACEMENT_3D('',#812,#648,#649);
#573=AXIS2_PLACEMENT_3D('',#815,#650,#651);
#574=AXIS2_PLACEMENT_3D('',#818,#654,#655);
#575=AXIS2_PLACEMENT_3D('',#820,#656,#657);
#576=AXIS2_PLACEMENT_3D('',#822,#658,#659);
#577=AXIS2_PLACEMENT_3D('',#823,#660,#661);
#578=AXIS2_PLACEMENT_3D('',#824,#662,#663);
#579=AXIS2_PLACEMENT_3D('',#827,#664,#665);
#580=AXIS2_PLACEMENT_3D('',#830,#668,#669);
#581=AXIS2_PLACEMENT_3D('',#832,#671,#672);
#582=AXIS2_PLACEMENT_3D('',#834,#673,#674);
#583=AXIS2_PLACEMENT_3D('',#836,#675,#676);
#584=AXIS2_PLACEMENT_3D('',#837,#677,#678);
#585=AXIS2_PLACEMENT_3D('',#838,#679,#680);
#586=AXIS2_PLACEMENT_3D('',#841,#681,#682);
#587=AXIS2_PLACEMENT_3D('',#844,#685,#686);
#588=AXIS2_PLACEMENT_3D('',#846,#687,#688);
#589=AXIS2_PLACEMENT_3D('',#848,#689,#690);
#590=AXIS2_PLACEMENT_3D('',#849,#691,#692);
#591=AXIS2_PLACEMENT_3D('',#850,#693,#694);
#592=AXIS2_PLACEMENT_3D('',#853,#695,#696);
#593=AXIS2_PLACEMENT_3D('',#856,#699,#700);
#594=AXIS2_PLACEMENT_3D('',#858,#702,#703);
#595=AXIS2_PLACEMENT_3D('',#861,#704,#705);
#596=AXIS2_PLACEMENT_3D('',#862,#706,#707);
#597=AXIS2_PLACEMENT_3D('',#863,#708,#709);
#598=AXIS2_PLACEMENT_3D('',#864,#710,#711);
#599=AXIS2_PLACEMENT_3D('',#866,#713,#714);
#600=AXIS2_PLACEMENT_3D('',#868,#716,#717);
#601=AXIS2_PLACEMENT_3D('',#871,#718,#719);
#602=AXIS2_PLACEMENT_3D('',#874,#722,#723);
#603=AXIS2_PLACEMENT_3D('',#876,#725,#726);
#604=AXIS2_PLACEMENT_3D('',#886,#732,#733);
#605=AXIS2_PLACEMENT_3D('',#888,#735,#736);
#606=AXIS2_PLACEMENT_3D('',#905,#747,#748);
#607=AXIS2_PLACEMENT_3D('',#911,#752,#753);
#608=AXIS2_PLACEMENT_3D('',#913,#755,#756);
#609=AXIS2_PLACEMENT_3D('',#915,#758,#759);
#610=AXIS2_PLACEMENT_3D('',#916,#760,#761);
#611=AXIS2_PLACEMENT_3D('',#925,#766,#767);
#612=AXIS2_PLACEMENT_3D('',#928,#770,#771);
#613=AXIS2_PLACEMENT_3D('',#931,#774,#775);
#614=AXIS2_PLACEMENT_3D('',#932,#776,#777);
#615=AXIS2_PLACEMENT_3D('',#933,#778,#779);
#616=AXIS2_PLACEMENT_3D('',#934,#780,#781);
#617=AXIS2_PLACEMENT_3D('',#935,#782,#783);
#618=DIRECTION('axis',(0.,0.,1.));
#619=DIRECTION('refdir',(1.,0.,0.));
#620=DIRECTION('center_axis',(0.,0.,-1.));
#621=DIRECTION('ref_axis',(-1.,0.,0.));
#622=DIRECTION('center_axis',(0.,0.,1.));
#623=DIRECTION('ref_axis',(-1.,0.,0.));
#624=DIRECTION('center_axis',(-1.22464679914735E-16,-1.,0.));
#625=DIRECTION('ref_axis',(1.,-1.22464679914735E-16,0.));
#626=DIRECTION('center_axis',(0.,0.,-1.));
#627=DIRECTION('ref_axis',(-1.,0.,0.));
#628=DIRECTION('center_axis',(0.,0.,1.));
#629=DIRECTION('ref_axis',(1.,0.,0.));
#630=DIRECTION('',(1.,0.,0.));
#631=DIRECTION('',(0.,1.,0.));
#632=DIRECTION('',(-0.707106781186548,0.707106781186547,0.));
#633=DIRECTION('',(-1.,0.,0.));
#634=DIRECTION('',(0.,-1.,0.));
#635=DIRECTION('center_axis',(0.,0.,-1.));
#636=DIRECTION('ref_axis',(-1.,0.,0.));
#637=DIRECTION('',(0.,0.,-1.));
#638=DIRECTION('center_axis',(0.,0.,-1.));
#639=DIRECTION('ref_axis',(-1.,0.,0.));
#640=DIRECTION('center_axis',(-0.408248290463863,-0.816496580927726,0.408248290463863));
#641=DIRECTION('ref_axis',(-0.577350269189626,0.577350269189626,0.577350269189626));
#642=DIRECTION('center_axis',(-1.,0.,0.));
#643=DIRECTION('ref_axis',(0.,1.,0.));
#644=DIRECTION('center_axis',(0.,0.,1.));
#645=DIRECTION('ref_axis',(-1.,0.,0.));
#646=DIRECTION('center_axis',(0.,1.,0.));
#647=DIRECTION('ref_axis',(0.,0.,1.));
#648=DIRECTION('center_axis',(0.,0.,1.));
#649=DIRECTION('ref_axis',(-0.707106781186548,0.707106781186548,0.));
#650=DIRECTION('center_axis',(0.,0.,1.));
#651=DIRECTION('ref_axis',(-0.707106781186548,0.707106781186548,0.));
#652=DIRECTION('',(0.,0.,1.));
#653=DIRECTION('',(0.,0.,-1.));
#654=DIRECTION('center_axis',(0.408248290463863,-0.816496580927726,0.408248290463863));
#655=DIRECTION('ref_axis',(0.577350269189626,0.577350269189626,0.577350269189626));
#656=DIRECTION('center_axis',(0.,1.,0.));
#657=DIRECTION('ref_axis',(1.,0.,0.));
#658=DIRECTION('center_axis',(0.,0.,1.));
#659=DIRECTION('ref_axis',(0.,1.,0.));
#660=DIRECTION('center_axis',(1.,0.,0.));
#661=DIRECTION('ref_axis',(0.,0.,1.));
#662=DIRECTION('center_axis',(0.,0.,1.));
#663=DIRECTION('ref_axis',(0.707106781186548,0.707106781186548,0.));
#664=DIRECTION('center_axis',(0.,0.,1.));
#665=DIRECTION('ref_axis',(0.707106781186548,0.707106781186548,0.));
#666=DIRECTION('',(0.,0.,1.));
#667=DIRECTION('',(0.,0.,-1.));
#668=DIRECTION('center_axis',(-1.,0.,0.));
#669=DIRECTION('ref_axis',(0.,0.707106781186548,0.707106781186548));
#670=DIRECTION('',(-1.,0.,0.));
#671=DIRECTION('center_axis',(-0.439732612032305,-0.182143211721526,-0.87946522406461));
#672=DIRECTION('ref_axis',(-0.812519920068748,-0.336556770590774,0.475963149477967));
#673=DIRECTION('center_axis',(0.,-1.,5.55111512312578E-15));
#674=DIRECTION('ref_axis',(-1.,0.,0.));
#675=DIRECTION('center_axis',(0.,0.,1.));
#676=DIRECTION('ref_axis',(-0.707106781186548,-0.707106781186548,0.));
#677=DIRECTION('center_axis',(-0.707106781186549,0.707106781186546,0.));
#678=DIRECTION('ref_axis',(0.,0.,1.));
#679=DIRECTION('center_axis',(0.,0.,-1.));
#680=DIRECTION('ref_axis',(-0.923879532511286,-0.382683432365092,0.));
#681=DIRECTION('center_axis',(0.,0.,1.));
#682=DIRECTION('ref_axis',(-0.923879532511286,-0.382683432365092,0.));
#683=DIRECTION('',(0.,0.,1.));
#684=DIRECTION('',(0.,0.,-1.));
#685=DIRECTION('center_axis',(-0.408248290463863,-0.816496580927726,-0.408248290463863));
#686=DIRECTION('ref_axis',(0.577350269189626,-0.577350269189626,0.577350269189626));
#687=DIRECTION('center_axis',(1.,0.,0.));
#688=DIRECTION('ref_axis',(0.,-1.,0.));
#689=DIRECTION('center_axis',(0.,0.,1.));
#690=DIRECTION('ref_axis',(1.,0.,0.));
#691=DIRECTION('center_axis',(0.,-1.,0.));
#692=DIRECTION('ref_axis',(0.,0.,1.));
#693=DIRECTION('center_axis',(0.,0.,1.));
#694=DIRECTION('ref_axis',(0.707106781186548,-0.707106781186548,0.));
#695=DIRECTION('center_axis',(0.,0.,1.));
#696=DIRECTION('ref_axis',(0.707106781186548,-0.707106781186548,0.));
#697=DIRECTION('',(0.,0.,1.));
#698=DIRECTION('',(0.,0.,-1.));
#699=DIRECTION('center_axis',(0.,1.,0.));
#700=DIRECTION('ref_axis',(0.707106781186548,0.,0.707106781186548));
#701=DIRECTION('',(0.,1.,0.));
#702=DIRECTION('center_axis',(-0.941663177664659,0.290400099340404,-0.170112439679113));
#703=DIRECTION('ref_axis',(-0.336556770590781,-0.812519920068744,0.475963149477967));
#704=DIRECTION('center_axis',(0.,0.,1.));
#705=DIRECTION('ref_axis',(0.,-1.,0.));
#706=DIRECTION('center_axis',(-1.,5.55111512312578E-15,0.));
#707=DIRECTION('ref_axis',(0.,0.,1.));
#708=DIRECTION('center_axis',(0.707106781186548,-0.707106781186548,-3.92523114670943E-15));
#709=DIRECTION('ref_axis',(-0.707106781186547,-0.707106781186547,0.));
#710=DIRECTION('center_axis',(1.,0.,0.));
#711=DIRECTION('ref_axis',(0.,-0.707106781186548,0.707106781186548));
#712=DIRECTION('',(1.,0.,0.));
#713=DIRECTION('center_axis',(-0.707106781186548,0.707106781186547,0.));
#714=DIRECTION('ref_axis',(-0.500000000000001,-0.500000000000001,0.707106781186546));
#715=DIRECTION('',(0.707106781186548,-0.707106781186547,0.));
#716=DIRECTION('center_axis',(0.,0.,1.));
#717=DIRECTION('ref_axis',(-0.38268343236509,-0.923879532511287,0.));
#718=DIRECTION('center_axis',(0.,0.,1.));
#719=DIRECTION('ref_axis',(-0.38268343236509,-0.923879532511287,0.));
#720=DIRECTION('',(0.,0.,1.));
#721=DIRECTION('',(0.,0.,-1.));
#722=DIRECTION('center_axis',(0.,-1.,0.));
#723=DIRECTION('ref_axis',(-0.707106781186548,0.,0.707106781186548));
#724=DIRECTION('',(0.,-1.,0.));
#725=DIRECTION('center_axis',(0.,1.,0.));
#726=DIRECTION('ref_axis',(-1.,0.,0.));
#727=DIRECTION('',(-1.,0.,0.));
#728=DIRECTION('',(0.,0.,1.));
#729=DIRECTION('',(-1.,0.,0.));
#730=DIRECTION('',(0.,0.,-1.));
#731=DIRECTION('',(-1.,0.,0.));
#732=DIRECTION('center_axis',(1.,0.,0.));
#733=DIRECTION('ref_axis',(0.,1.,0.));
#734=DIRECTION('',(0.,1.,0.));
#735=DIRECTION('center_axis',(0.,0.,1.));
#736=DIRECTION('ref_axis',(1.,0.,0.));
#737=DIRECTION('',(0.,1.,0.));
#738=DIRECTION('',(1.,0.,0.));
#739=DIRECTION('',(0.,1.,0.));
#740=DIRECTION('',(1.,0.,0.));
#741=DIRECTION('',(0.,-1.,0.));
#742=DIRECTION('',(1.,0.,0.));
#743=DIRECTION('',(0.,-1.,0.));
#744=DIRECTION('',(1.,0.,0.));
#745=DIRECTION('',(0.707106781186548,-0.707106781186547,0.));
#746=DIRECTION('',(0.,-1.,0.));
#747=DIRECTION('center_axis',(0.,0.,-1.));
#748=DIRECTION('ref_axis',(-1.,0.,0.));
#749=DIRECTION('',(0.,1.,0.));
#750=DIRECTION('',(-1.,0.,0.));
#751=DIRECTION('',(0.,1.,0.));
#752=DIRECTION('center_axis',(-1.,0.,0.));
#753=DIRECTION('ref_axis',(0.,0.,1.));
#754=DIRECTION('',(0.,0.,1.));
#755=DIRECTION('center_axis',(1.,0.,0.));
#756=DIRECTION('ref_axis',(0.,0.,-1.));
#757=DIRECTION('',(0.,0.,-1.));
#758=DIRECTION('center_axis',(0.,-1.,0.));
#759=DIRECTION('ref_axis',(0.,0.,-1.));
#760=DIRECTION('center_axis',(0.,0.,1.));
#761=DIRECTION('ref_axis',(-1.,0.,0.));
#762=DIRECTION('',(1.,0.,0.));
#763=DIRECTION('',(0.,-1.,0.));
#764=DIRECTION('',(-1.,0.,0.));
#765=DIRECTION('',(0.,-1.,0.));
#766=DIRECTION('center_axis',(1.,0.,0.));
#767=DIRECTION('ref_axis',(0.,0.,1.));
#768=DIRECTION('',(0.,0.,-1.));
#769=DIRECTION('',(0.,0.,1.));
#770=DIRECTION('center_axis',(-1.,0.,0.));
#771=DIRECTION('ref_axis',(0.,0.,-1.));
#772=DIRECTION('',(0.,0.,1.));
#773=DIRECTION('',(0.,0.,-1.));
#774=DIRECTION('center_axis',(0.,-1.,0.));
#775=DIRECTION('ref_axis',(0.,0.,-1.));
#776=DIRECTION('center_axis',(0.,0.,1.));
#777=DIRECTION('ref_axis',(-1.,0.,0.));
#778=DIRECTION('center_axis',(-0.707106781186547,-0.707106781186548,0.));
#779=DIRECTION('ref_axis',(0.,0.,1.));
#780=DIRECTION('center_axis',(-1.,0.,0.));
#781=DIRECTION('ref_axis',(0.,-1.,0.));
#782=DIRECTION('center_axis',(0.,-1.,0.));
#783=DIRECTION('ref_axis',(1.,0.,0.));
#784=CARTESIAN_POINT('',(0.,0.,0.));
#785=CARTESIAN_POINT('Origin',(0.,0.,4.8));
#786=CARTESIAN_POINT('',(0.95,1.16341445918999E-16,5.));
#787=CARTESIAN_POINT('Origin',(0.,0.,5.));
#788=CARTESIAN_POINT('',(0.75,-9.18485099360515E-17,4.8));
#789=CARTESIAN_POINT('Origin',(0.95,-1.16341445918999E-16,4.8));
#790=CARTESIAN_POINT('Origin',(0.,0.,4.8));
#791=CARTESIAN_POINT('Origin',(0.,0.,5.));
#792=CARTESIAN_POINT('',(-4.6,4.6,5.));
#793=CARTESIAN_POINT('',(4.6,4.6,5.));
#794=CARTESIAN_POINT('',(2.4,4.6,5.));
#795=CARTESIAN_POINT('',(-4.6,-2.71715728752538,5.));
#796=CARTESIAN_POINT('',(-4.6,2.4,5.));
#797=CARTESIAN_POINT('',(-2.71715728752538,-4.6,5.));
#798=CARTESIAN_POINT('',(-3.65857864376269,-3.65857864376269,5.));
#799=CARTESIAN_POINT('',(4.6,-4.6,5.));
#800=CARTESIAN_POINT('',(-2.4,-4.6,5.));
#801=CARTESIAN_POINT('',(4.6,-2.4,5.));
#802=CARTESIAN_POINT('Origin',(0.,0.,5.));
#803=CARTESIAN_POINT('',(0.75,9.18485099360515E-17,3.));
#804=CARTESIAN_POINT('',(0.75,-9.18485099360515E-17,5.));
#805=CARTESIAN_POINT('Origin',(0.,0.,3.));
#806=CARTESIAN_POINT('Origin',(-4.6,4.6,4.8));
#807=CARTESIAN_POINT('',(-4.6,4.8,4.8));
#808=CARTESIAN_POINT('Origin',(-4.6,4.6,4.8));
#809=CARTESIAN_POINT('',(-4.8,4.6,4.8));
#810=CARTESIAN_POINT('Origin',(-4.6,4.6,4.8));
#811=CARTESIAN_POINT('Origin',(-4.6,4.6,4.8));
#812=CARTESIAN_POINT('Origin',(-4.6,4.6,0.));
#813=CARTESIAN_POINT('',(-4.6,4.8,0.));
#814=CARTESIAN_POINT('',(-4.8,4.6,0.));
#815=CARTESIAN_POINT('Origin',(-4.6,4.6,0.));
#816=CARTESIAN_POINT('',(-4.8,4.6,0.));
#817=CARTESIAN_POINT('',(-4.6,4.8,0.));
#818=CARTESIAN_POINT('Origin',(4.6,4.6,4.8));
#819=CARTESIAN_POINT('',(4.8,4.6,4.8));
#820=CARTESIAN_POINT('Origin',(4.6,4.6,4.8));
#821=CARTESIAN_POINT('',(4.6,4.8,4.8));
#822=CARTESIAN_POINT('Origin',(4.6,4.6,4.8));
#823=CARTESIAN_POINT('Origin',(4.6,4.6,4.8));
#824=CARTESIAN_POINT('Origin',(4.6,4.6,0.));
#825=CARTESIAN_POINT('',(4.8,4.6,0.));
#826=CARTESIAN_POINT('',(4.6,4.8,0.));
#827=CARTESIAN_POINT('Origin',(4.6,4.6,0.));
#828=CARTESIAN_POINT('',(4.6,4.8,0.));
#829=CARTESIAN_POINT('',(4.8,4.6,0.));
#830=CARTESIAN_POINT('Origin',(2.4,4.6,4.8));
#831=CARTESIAN_POINT('',(2.4,4.8,4.8));
#832=CARTESIAN_POINT('Origin',(-4.6,-2.71715728752538,4.8));
#833=CARTESIAN_POINT('',(-4.8,-2.71715728752538,4.8));
#834=CARTESIAN_POINT('Origin',(-4.6,-2.71715728752538,4.8));
#835=CARTESIAN_POINT('',(-4.74142135623731,-2.85857864376269,4.8));
#836=CARTESIAN_POINT('Origin',(-4.6,-2.71715728752538,4.8));
#837=CARTESIAN_POINT('Origin',(-4.6,-2.71715728752538,4.8));
#838=CARTESIAN_POINT('Origin',(-4.6,-2.71715728752538,0.));
#839=CARTESIAN_POINT('',(-4.8,-2.71715728752538,0.));
#840=CARTESIAN_POINT('',(-4.74142135623731,-2.85857864376269,0.));
#841=CARTESIAN_POINT('Origin',(-4.6,-2.71715728752538,0.));
#842=CARTESIAN_POINT('',(-4.74142135623731,-2.85857864376269,0.));
#843=CARTESIAN_POINT('',(-4.8,-2.71715728752538,0.));
#844=CARTESIAN_POINT('Origin',(4.6,-4.6,4.8));
#845=CARTESIAN_POINT('',(4.6,-4.8,4.8));
#846=CARTESIAN_POINT('Origin',(4.6,-4.6,4.8));
#847=CARTESIAN_POINT('',(4.8,-4.6,4.8));
#848=CARTESIAN_POINT('Origin',(4.6,-4.6,4.8));
#849=CARTESIAN_POINT('Origin',(4.6,-4.6,4.8));
#850=CARTESIAN_POINT('Origin',(4.6,-4.6,0.));
#851=CARTESIAN_POINT('',(4.6,-4.8,0.));
#852=CARTESIAN_POINT('',(4.8,-4.6,0.));
#853=CARTESIAN_POINT('Origin',(4.6,-4.6,0.));
#854=CARTESIAN_POINT('',(4.8,-4.6,0.));
#855=CARTESIAN_POINT('',(4.6,-4.8,0.));
#856=CARTESIAN_POINT('Origin',(4.6,-2.4,4.8));
#857=CARTESIAN_POINT('',(4.8,-2.4,4.8));
#858=CARTESIAN_POINT('Origin',(-2.71715728752538,-4.6,4.8));
#859=CARTESIAN_POINT('',(-2.71715728752538,-4.8,4.8));
#860=CARTESIAN_POINT('',(-2.85857864376269,-4.74142135623731,4.8));
#861=CARTESIAN_POINT('Origin',(-2.71715728752538,-4.6,4.8));
#862=CARTESIAN_POINT('Origin',(-2.71715728752538,-4.6,4.8));
#863=CARTESIAN_POINT('Origin',(-2.71715728752538,-4.6,4.8));
#864=CARTESIAN_POINT('Origin',(-2.4,-4.6,4.8));
#865=CARTESIAN_POINT('',(-2.4,-4.8,4.8));
#866=CARTESIAN_POINT('Origin',(-3.65857864376269,-3.65857864376269,4.8));
#867=CARTESIAN_POINT('',(-3.8,-3.8,4.8));
#868=CARTESIAN_POINT('Origin',(-2.71715728752538,-4.6,0.));
#869=CARTESIAN_POINT('',(-2.85857864376269,-4.74142135623731,0.));
#870=CARTESIAN_POINT('',(-2.71715728752538,-4.8,0.));
#871=CARTESIAN_POINT('Origin',(-2.71715728752538,-4.6,0.));
#872=CARTESIAN_POINT('',(-2.71715728752538,-4.8,0.));
#873=CARTESIAN_POINT('',(-2.85857864376269,-4.74142135623731,0.));
#874=CARTESIAN_POINT('Origin',(-4.6,2.4,4.8));
#875=CARTESIAN_POINT('',(-4.8,2.4,4.8));
#876=CARTESIAN_POINT('Origin',(4.8,4.8,0.));
#877=CARTESIAN_POINT('',(0.75,4.8,0.));
#878=CARTESIAN_POINT('',(4.8,4.8,0.));
#879=CARTESIAN_POINT('',(0.75,4.8,2.4));
#880=CARTESIAN_POINT('',(0.75,4.8,0.));
#881=CARTESIAN_POINT('',(-0.75,4.8,2.4));
#882=CARTESIAN_POINT('',(2.775,4.8,2.4));
#883=CARTESIAN_POINT('',(-0.75,4.8,0.));
#884=CARTESIAN_POINT('',(-0.75,4.8,1.2));
#885=CARTESIAN_POINT('',(4.8,4.8,0.));
#886=CARTESIAN_POINT('Origin',(4.8,-4.8,0.));
#887=CARTESIAN_POINT('',(4.8,-4.8,0.));
#888=CARTESIAN_POINT('Origin',(0.,0.,0.));
#889=CARTESIAN_POINT('',(-0.75,5.,0.));
#890=CARTESIAN_POINT('',(-0.75,4.8,0.));
#891=CARTESIAN_POINT('',(0.75,5.,0.));
#892=CARTESIAN_POINT('',(-0.75,5.,0.));
#893=CARTESIAN_POINT('',(0.75,4.8,0.));
#894=CARTESIAN_POINT('',(0.75,-4.8,0.));
#895=CARTESIAN_POINT('',(-4.8,-4.8,0.));
#896=CARTESIAN_POINT('',(0.75,-5.,0.));
#897=CARTESIAN_POINT('',(0.75,-4.8,0.));
#898=CARTESIAN_POINT('',(-0.75,-5.,0.));
#899=CARTESIAN_POINT('',(-0.75,-5.,0.));
#900=CARTESIAN_POINT('',(-0.75,-4.8,0.));
#901=CARTESIAN_POINT('',(-0.75,-4.8,0.));
#902=CARTESIAN_POINT('',(-4.8,-4.8,0.));
#903=CARTESIAN_POINT('',(-3.8,-3.8,0.));
#904=CARTESIAN_POINT('',(-4.8,4.8,0.));
#905=CARTESIAN_POINT('Origin',(0.75,4.8,2.4));
#906=CARTESIAN_POINT('',(0.75,5.,2.4));
#907=CARTESIAN_POINT('',(0.75,4.8,2.4));
#908=CARTESIAN_POINT('',(-0.75,5.,2.4));
#909=CARTESIAN_POINT('',(0.75,5.,2.4));
#910=CARTESIAN_POINT('',(-0.75,4.8,2.4));
#911=CARTESIAN_POINT('Origin',(0.75,4.8,0.));
#912=CARTESIAN_POINT('',(0.75,5.,0.));
#913=CARTESIAN_POINT('Origin',(-0.75,4.8,2.4));
#914=CARTESIAN_POINT('',(-0.75,5.,2.4));
#915=CARTESIAN_POINT('Origin',(0.,5.,1.2));
#916=CARTESIAN_POINT('Origin',(0.75,-4.8,2.4));
#917=CARTESIAN_POINT('',(-0.75,-4.8,2.4));
#918=CARTESIAN_POINT('',(0.75,-4.8,2.4));
#919=CARTESIAN_POINT('',(-2.025,-4.8,2.4));
#920=CARTESIAN_POINT('',(-0.75,-5.,2.4));
#921=CARTESIAN_POINT('',(-0.75,-4.8,2.4));
#922=CARTESIAN_POINT('',(0.75,-5.,2.4));
#923=CARTESIAN_POINT('',(0.75,-5.,2.4));
#924=CARTESIAN_POINT('',(0.75,-4.8,2.4));
#925=CARTESIAN_POINT('Origin',(0.75,-4.8,0.));
#926=CARTESIAN_POINT('',(0.75,-4.8,0.));
#927=CARTESIAN_POINT('',(0.75,-5.,0.));
#928=CARTESIAN_POINT('Origin',(-0.75,-4.8,2.4));
#929=CARTESIAN_POINT('',(-0.75,-4.8,1.2));
#930=CARTESIAN_POINT('',(-0.75,-5.,2.4));
#931=CARTESIAN_POINT('Origin',(0.,-5.,1.2));
#932=CARTESIAN_POINT('Origin',(0.,0.,3.));
#933=CARTESIAN_POINT('Origin',(-3.8,-3.8,0.));
#934=CARTESIAN_POINT('Origin',(-4.8,4.8,0.));
#935=CARTESIAN_POINT('Origin',(-4.8,-4.8,0.));
#936=UNCERTAINTY_MEASURE_WITH_UNIT(LENGTH_MEASURE(0.01),#940,
'DISTANCE_ACCURACY_VALUE',
'Maximum model space distance between geometric entities at asserted c
onnectivities');
#937=UNCERTAINTY_MEASURE_WITH_UNIT(LENGTH_MEASURE(0.01),#940,
'DISTANCE_ACCURACY_VALUE',
'Maximum model space distance between geometric entities at asserted c
onnectivities');
#938=(
GEOMETRIC_REPRESENTATION_CONTEXT(3)
GLOBAL_UNCERTAINTY_ASSIGNED_CONTEXT((#936))
GLOBAL_UNIT_ASSIGNED_CONTEXT((#940,#942,#943))
REPRESENTATION_CONTEXT('','3D')
);
#939=(
GEOMETRIC_REPRESENTATION_CONTEXT(3)
GLOBAL_UNCERTAINTY_ASSIGNED_CONTEXT((#937))
GLOBAL_UNIT_ASSIGNED_CONTEXT((#940,#942,#943))
REPRESENTATION_CONTEXT('','3D')
);
#940=(
LENGTH_UNIT()
NAMED_UNIT(*)
SI_UNIT(.MILLI.,.METRE.)
);
#941=(
LENGTH_UNIT()
NAMED_UNIT(*)
SI_UNIT($,.METRE.)
);
#942=(
NAMED_UNIT(*)
PLANE_ANGLE_UNIT()
SI_UNIT($,.RADIAN.)
);
#943=(
NAMED_UNIT(*)
SI_UNIT($,.STERADIAN.)
SOLID_ANGLE_UNIT()
);
#944=SHAPE_DEFINITION_REPRESENTATION(#945,#946);
#945=PRODUCT_DEFINITION_SHAPE('',$,#948);
#946=SHAPE_REPRESENTATION('',(#560),#938);
#947=PRODUCT_DEFINITION_CONTEXT('part definition',#952,'design');
#948=PRODUCT_DEFINITION('Fuet 9.6x9.6','Fuet 9.6x9.6 v3',#949,#947);
#949=PRODUCT_DEFINITION_FORMATION('',$,#954);
#950=PRODUCT_RELATED_PRODUCT_CATEGORY('Fuet 9.6x9.6 v3',
'Fuet 9.6x9.6 v3',(#954));
#951=APPLICATION_PROTOCOL_DEFINITION('international standard',
'automotive_design',2009,#952);
#952=APPLICATION_CONTEXT(
'Core Data for Automotive Mechanical Design Process');
#953=PRODUCT_CONTEXT('part definition',#952,'mechanical');
#954=PRODUCT('Fuet 9.6x9.6','Fuet 9.6x9.6 v3',$,(#953));
#955=PRESENTATION_STYLE_ASSIGNMENT((#959));
#956=PRESENTATION_STYLE_ASSIGNMENT((#960));
#957=PRESENTATION_STYLE_ASSIGNMENT((#961));
#958=PRESENTATION_STYLE_ASSIGNMENT((#962));
#959=SURFACE_STYLE_USAGE(.BOTH.,#963);
#960=SURFACE_STYLE_USAGE(.BOTH.,#964);
#961=SURFACE_STYLE_USAGE(.BOTH.,#965);
#962=SURFACE_STYLE_USAGE(.BOTH.,#966);
#963=SURFACE_SIDE_STYLE('',(#967));
#964=SURFACE_SIDE_STYLE('',(#968));
#965=SURFACE_SIDE_STYLE('',(#969));
#966=SURFACE_SIDE_STYLE('',(#970));
#967=SURFACE_STYLE_FILL_AREA(#971);
#968=SURFACE_STYLE_FILL_AREA(#972);
#969=SURFACE_STYLE_FILL_AREA(#973);
#970=SURFACE_STYLE_FILL_AREA(#974);
#971=FILL_AREA_STYLE('Steel - Satin',(#975));
#972=FILL_AREA_STYLE('Nylon 6-6 (White)',(#976));
#973=FILL_AREA_STYLE('Nickel - Satin',(#977));
#974=FILL_AREA_STYLE('Brass - Matte',(#978));
#975=FILL_AREA_STYLE_COLOUR('Steel - Satin',#979);
#976=FILL_AREA_STYLE_COLOUR('Nylon 6-6 (White)',#980);
#977=FILL_AREA_STYLE_COLOUR('Nickel - Satin',#981);
#978=FILL_AREA_STYLE_COLOUR('Brass - Matte',#982);
#979=COLOUR_RGB('Steel - Satin',0.627450980392157,0.627450980392157,0.627450980392157);
#980=COLOUR_RGB('Nylon 6-6 (White)',0.298039215686275,0.298039215686275,
0.298039215686275);
#981=COLOUR_RGB('Nickel - Satin',0.819607843137255,0.8,0.752941176470588);
#982=COLOUR_RGB('Brass - Matte',0.952941176470588,0.796078431372549,0.486274509803922);
ENDSEC;
END-ISO-10303-21;
