ISO-10303-21;
HEADER;
/* Generated by software containing ST-Developer
 * from STEP Tools, Inc. (www.steptools.com) 
 */

FILE_DESCRIPTION(
/* description */ (''),
/* implementation_level */ '2;1');

FILE_NAME(
/* name */ 'XFCN 507.step',
/* time_stamp */ '2025-12-05T21:03:47-10:00',
/* author */ (''),
/* organization */ (''),
/* preprocessor_version */ 'ST-DEVELOPER v20.1',
/* originating_system */ 'Autodesk Translation Framework v14.21.0.0',
/* authorisation */ '');

FILE_SCHEMA (('AUTOMOTIVE_DESIGN { 1 0 10303 214 3 1 1 }'));
ENDSEC;

DATA;
#10=MECHANICAL_DESIGN_GEOMETRIC_PRESENTATION_REPRESENTATION('',(#13),#1871);
#11=SHAPE_REPRESENTATION_RELATIONSHIP('SRR','None',#1878,#12);
#12=ADVANCED_BREP_SHAPE_REPRESENTATION('',(#14),#1870);
#13=STYLED_ITEM('',(#1888),#14);
#14=MANIFOLD_SOLID_BREP('Body1',#1085);
#15=CONICAL_SURFACE('',#1181,1.379787193947,0.785398163397);
#16=CONICAL_SURFACE('',#1190,1.379787193947,0.785398163397);
#17=TOROIDAL_SURFACE('',#1177,0.861688642336,0.334502198803);
#18=TOROIDAL_SURFACE('',#1183,0.930774387893,0.635);
#19=TOROIDAL_SURFACE('',#1186,0.861688642336,0.334502198803);
#20=TOROIDAL_SURFACE('',#1192,0.930774387893,0.635);
#21=TOROIDAL_SURFACE('',#1212,1.73061673976,1.27);
#22=TOROIDAL_SURFACE('',#1214,1.73061673976,1.27);
#23=FACE_BOUND('',#117,.T.);
#24=FACE_BOUND('',#125,.T.);
#25=ELLIPSE('',#1114,1.11355175900813,0.787399999979743);
#26=ELLIPSE('',#1122,1.11355175906062,0.787400000054282);
#27=ELLIPSE('',#1135,0.538815367263134,0.380999999999218);
#28=ELLIPSE('',#1143,0.538815367265115,0.381000000000682);
#29=CYLINDRICAL_SURFACE('',#1104,1.1938);
#30=CYLINDRICAL_SURFACE('',#1109,1.6002);
#31=CYLINDRICAL_SURFACE('',#1113,0.7874);
#32=CYLINDRICAL_SURFACE('',#1121,0.7874);
#33=CYLINDRICAL_SURFACE('',#1124,1.6002);
#34=CYLINDRICAL_SURFACE('',#1129,1.1938);
#35=CYLINDRICAL_SURFACE('',#1134,0.381);
#36=CYLINDRICAL_SURFACE('',#1142,0.381);
#37=CYLINDRICAL_SURFACE('',#1158,0.254);
#38=CYLINDRICAL_SURFACE('',#1162,0.254);
#39=CYLINDRICAL_SURFACE('',#1196,0.638359755388);
#40=CYLINDRICAL_SURFACE('',#1199,0.638359755388);
#41=CYLINDRICAL_SURFACE('',#1207,0.334502198803);
#42=CYLINDRICAL_SURFACE('',#1208,0.334502198803);
#43=CYLINDRICAL_SURFACE('',#1209,1.27);
#44=CYLINDRICAL_SURFACE('',#1216,1.27);
#45=FACE_OUTER_BOUND('',#109,.T.);
#46=FACE_OUTER_BOUND('',#110,.T.);
#47=FACE_OUTER_BOUND('',#111,.T.);
#48=FACE_OUTER_BOUND('',#112,.T.);
#49=FACE_OUTER_BOUND('',#113,.T.);
#50=FACE_OUTER_BOUND('',#114,.T.);
#51=FACE_OUTER_BOUND('',#115,.T.);
#52=FACE_OUTER_BOUND('',#116,.T.);
#53=FACE_OUTER_BOUND('',#118,.T.);
#54=FACE_OUTER_BOUND('',#119,.T.);
#55=FACE_OUTER_BOUND('',#120,.T.);
#56=FACE_OUTER_BOUND('',#121,.T.);
#57=FACE_OUTER_BOUND('',#122,.T.);
#58=FACE_OUTER_BOUND('',#123,.T.);
#59=FACE_OUTER_BOUND('',#124,.T.);
#60=FACE_OUTER_BOUND('',#126,.T.);
#61=FACE_OUTER_BOUND('',#127,.T.);
#62=FACE_OUTER_BOUND('',#128,.T.);
#63=FACE_OUTER_BOUND('',#129,.T.);
#64=FACE_OUTER_BOUND('',#130,.T.);
#65=FACE_OUTER_BOUND('',#131,.T.);
#66=FACE_OUTER_BOUND('',#132,.T.);
#67=FACE_OUTER_BOUND('',#133,.T.);
#68=FACE_OUTER_BOUND('',#134,.T.);
#69=FACE_OUTER_BOUND('',#135,.T.);
#70=FACE_OUTER_BOUND('',#136,.T.);
#71=FACE_OUTER_BOUND('',#137,.T.);
#72=FACE_OUTER_BOUND('',#138,.T.);
#73=FACE_OUTER_BOUND('',#139,.T.);
#74=FACE_OUTER_BOUND('',#140,.T.);
#75=FACE_OUTER_BOUND('',#141,.T.);
#76=FACE_OUTER_BOUND('',#142,.T.);
#77=FACE_OUTER_BOUND('',#143,.T.);
#78=FACE_OUTER_BOUND('',#144,.T.);
#79=FACE_OUTER_BOUND('',#145,.T.);
#80=FACE_OUTER_BOUND('',#146,.T.);
#81=FACE_OUTER_BOUND('',#147,.T.);
#82=FACE_OUTER_BOUND('',#148,.T.);
#83=FACE_OUTER_BOUND('',#149,.T.);
#84=FACE_OUTER_BOUND('',#150,.T.);
#85=FACE_OUTER_BOUND('',#151,.T.);
#86=FACE_OUTER_BOUND('',#152,.T.);
#87=FACE_OUTER_BOUND('',#153,.T.);
#88=FACE_OUTER_BOUND('',#154,.T.);
#89=FACE_OUTER_BOUND('',#155,.T.);
#90=FACE_OUTER_BOUND('',#156,.T.);
#91=FACE_OUTER_BOUND('',#157,.T.);
#92=FACE_OUTER_BOUND('',#158,.T.);
#93=FACE_OUTER_BOUND('',#159,.T.);
#94=FACE_OUTER_BOUND('',#160,.T.);
#95=FACE_OUTER_BOUND('',#161,.T.);
#96=FACE_OUTER_BOUND('',#162,.T.);
#97=FACE_OUTER_BOUND('',#163,.T.);
#98=FACE_OUTER_BOUND('',#164,.T.);
#99=FACE_OUTER_BOUND('',#165,.T.);
#100=FACE_OUTER_BOUND('',#166,.T.);
#101=FACE_OUTER_BOUND('',#167,.T.);
#102=FACE_OUTER_BOUND('',#168,.T.);
#103=FACE_OUTER_BOUND('',#169,.T.);
#104=FACE_OUTER_BOUND('',#170,.T.);
#105=FACE_OUTER_BOUND('',#171,.T.);
#106=FACE_OUTER_BOUND('',#172,.T.);
#107=FACE_OUTER_BOUND('',#173,.T.);
#108=FACE_OUTER_BOUND('',#174,.T.);
#109=EDGE_LOOP('',(#673,#674,#675));
#110=EDGE_LOOP('',(#676,#677,#678,#679));
#111=EDGE_LOOP('',(#680,#681,#682));
#112=EDGE_LOOP('',(#683,#684,#685,#686,#687,#688));
#113=EDGE_LOOP('',(#689,#690,#691,#692));
#114=EDGE_LOOP('',(#693,#694,#695,#696,#697,#698));
#115=EDGE_LOOP('',(#699,#700,#701,#702,#703));
#116=EDGE_LOOP('',(#704,#705,#706,#707,#708,#709,#710,#711,#712,#713));
#117=EDGE_LOOP('',(#714,#715,#716,#717));
#118=EDGE_LOOP('',(#718,#719,#720,#721,#722));
#119=EDGE_LOOP('',(#723,#724,#725,#726,#727,#728));
#120=EDGE_LOOP('',(#729,#730,#731,#732));
#121=EDGE_LOOP('',(#733,#734,#735,#736,#737,#738));
#122=EDGE_LOOP('',(#739,#740,#741,#742,#743,#744));
#123=EDGE_LOOP('',(#745,#746,#747,#748));
#124=EDGE_LOOP('',(#749,#750,#751,#752,#753,#754,#755,#756,#757,#758));
#125=EDGE_LOOP('',(#759,#760,#761,#762));
#126=EDGE_LOOP('',(#763,#764,#765,#766));
#127=EDGE_LOOP('',(#767,#768,#769,#770,#771,#772));
#128=EDGE_LOOP('',(#773,#774,#775,#776));
#129=EDGE_LOOP('',(#777,#778,#779,#780));
#130=EDGE_LOOP('',(#781,#782,#783,#784));
#131=EDGE_LOOP('',(#785,#786,#787,#788));
#132=EDGE_LOOP('',(#789,#790,#791,#792));
#133=EDGE_LOOP('',(#793,#794,#795,#796));
#134=EDGE_LOOP('',(#797,#798,#799,#800));
#135=EDGE_LOOP('',(#801,#802,#803,#804,#805,#806));
#136=EDGE_LOOP('',(#807,#808,#809,#810,#811,#812));
#137=EDGE_LOOP('',(#813,#814,#815,#816));
#138=EDGE_LOOP('',(#817,#818,#819,#820,#821,#822,#823,#824,#825));
#139=EDGE_LOOP('',(#826,#827,#828,#829));
#140=EDGE_LOOP('',(#830,#831,#832,#833));
#141=EDGE_LOOP('',(#834,#835,#836,#837));
#142=EDGE_LOOP('',(#838,#839,#840,#841,#842,#843,#844,#845,#846));
#143=EDGE_LOOP('',(#847,#848,#849,#850));
#144=EDGE_LOOP('',(#851,#852,#853,#854));
#145=EDGE_LOOP('',(#855,#856,#857,#858,#859));
#146=EDGE_LOOP('',(#860,#861,#862,#863,#864,#865));
#147=EDGE_LOOP('',(#866,#867,#868,#869));
#148=EDGE_LOOP('',(#870,#871,#872,#873));
#149=EDGE_LOOP('',(#874,#875,#876,#877));
#150=EDGE_LOOP('',(#878,#879,#880,#881,#882,#883));
#151=EDGE_LOOP('',(#884,#885,#886,#887,#888));
#152=EDGE_LOOP('',(#889,#890,#891,#892));
#153=EDGE_LOOP('',(#893,#894,#895,#896));
#154=EDGE_LOOP('',(#897,#898,#899,#900));
#155=EDGE_LOOP('',(#901,#902,#903,#904));
#156=EDGE_LOOP('',(#905,#906,#907,#908,#909,#910));
#157=EDGE_LOOP('',(#911,#912,#913,#914));
#158=EDGE_LOOP('',(#915,#916,#917,#918));
#159=EDGE_LOOP('',(#919,#920,#921,#922,#923,#924));
#160=EDGE_LOOP('',(#925,#926,#927,#928));
#161=EDGE_LOOP('',(#929,#930,#931,#932));
#162=EDGE_LOOP('',(#933,#934,#935,#936));
#163=EDGE_LOOP('',(#937,#938,#939,#940));
#164=EDGE_LOOP('',(#941,#942,#943,#944));
#165=EDGE_LOOP('',(#945,#946,#947));
#166=EDGE_LOOP('',(#948,#949,#950));
#167=EDGE_LOOP('',(#951,#952,#953));
#168=EDGE_LOOP('',(#954,#955,#956));
#169=EDGE_LOOP('',(#957,#958,#959,#960));
#170=EDGE_LOOP('',(#961,#962,#963,#964));
#171=EDGE_LOOP('',(#965,#966,#967,#968));
#172=EDGE_LOOP('',(#969,#970,#971,#972));
#173=EDGE_LOOP('',(#973,#974,#975,#976));
#174=EDGE_LOOP('',(#977,#978,#979,#980));
#175=LINE('',#1561,#275);
#176=LINE('',#1562,#276);
#177=LINE('',#1566,#277);
#178=LINE('',#1567,#278);
#179=LINE('',#1568,#279);
#180=LINE('',#1572,#280);
#181=LINE('',#1574,#281);
#182=LINE('',#1581,#282);
#183=LINE('',#1585,#283);
#184=LINE('',#1588,#284);
#185=LINE('',#1591,#285);
#186=LINE('',#1593,#286);
#187=LINE('',#1594,#287);
#188=LINE('',#1599,#288);
#189=LINE('',#1603,#289);
#190=LINE('',#1609,#290);
#191=LINE('',#1612,#291);
#192=LINE('',#1616,#292);
#193=LINE('',#1618,#293);
#194=LINE('',#1620,#294);
#195=LINE('',#1621,#295);
#196=LINE('',#1623,#296);
#197=LINE('',#1625,#297);
#198=LINE('',#1629,#298);
#199=LINE('',#1635,#299);
#200=LINE('',#1638,#300);
#201=LINE('',#1642,#301);
#202=LINE('',#1649,#302);
#203=LINE('',#1653,#303);
#204=LINE('',#1656,#304);
#205=LINE('',#1659,#305);
#206=LINE('',#1661,#306);
#207=LINE('',#1662,#307);
#208=LINE('',#1667,#308);
#209=LINE('',#1671,#309);
#210=LINE('',#1675,#310);
#211=LINE('',#1677,#311);
#212=LINE('',#1679,#312);
#213=LINE('',#1681,#313);
#214=LINE('',#1682,#314);
#215=LINE('',#1687,#315);
#216=LINE('',#1691,#316);
#217=LINE('',#1693,#317);
#218=LINE('',#1697,#318);
#219=LINE('',#1701,#319);
#220=LINE('',#1703,#320);
#221=LINE('',#1705,#321);
#222=LINE('',#1706,#322);
#223=LINE('',#1709,#323);
#224=LINE('',#1713,#324);
#225=LINE('',#1719,#325);
#226=LINE('',#1724,#326);
#227=LINE('',#1725,#327);
#228=LINE('',#1726,#328);
#229=LINE('',#1727,#329);
#230=LINE('',#1730,#330);
#231=LINE('',#1732,#331);
#232=LINE('',#1733,#332);
#233=LINE('',#1735,#333);
#234=LINE('',#1737,#334);
#235=LINE('',#1738,#335);
#236=LINE('',#1740,#336);
#237=LINE('',#1742,#337);
#238=LINE('',#1744,#338);
#239=LINE('',#1745,#339);
#240=LINE('',#1749,#340);
#241=LINE('',#1750,#341);
#242=LINE('',#1753,#342);
#243=LINE('',#1754,#343);
#244=LINE('',#1755,#344);
#245=LINE('',#1758,#345);
#246=LINE('',#1759,#346);
#247=LINE('',#1761,#347);
#248=LINE('',#1763,#348);
#249=LINE('',#1765,#349);
#250=LINE('',#1767,#350);
#251=LINE('',#1768,#351);
#252=LINE('',#1770,#352);
#253=LINE('',#1773,#353);
#254=LINE('',#1775,#354);
#255=LINE('',#1777,#355);
#256=LINE('',#1780,#356);
#257=LINE('',#1781,#357);
#258=LINE('',#1783,#358);
#259=LINE('',#1791,#359);
#260=LINE('',#1794,#360);
#261=LINE('',#1800,#361);
#262=LINE('',#1803,#362);
#263=LINE('',#1815,#363);
#264=LINE('',#1816,#364);
#265=LINE('',#1818,#365);
#266=LINE('',#1819,#366);
#267=LINE('',#1834,#367);
#268=LINE('',#1835,#368);
#269=LINE('',#1837,#369);
#270=LINE('',#1838,#370);
#271=LINE('',#1843,#371);
#272=LINE('',#1850,#372);
#273=LINE('',#1857,#373);
#274=LINE('',#1859,#374);
#275=VECTOR('',#1223,1.);
#276=VECTOR('',#1224,1.);
#277=VECTOR('',#1227,1.);
#278=VECTOR('',#1228,1.);
#279=VECTOR('',#1229,1.);
#280=VECTOR('',#1232,1.);
#281=VECTOR('',#1233,1.);
#282=VECTOR('',#1240,1.);
#283=VECTOR('',#1243,1.);
#284=VECTOR('',#1246,1.);
#285=VECTOR('',#1249,0.999999999999563);
#286=VECTOR('',#1250,1.);
#287=VECTOR('',#1251,0.999999999999563);
#288=VECTOR('',#1256,1.);
#289=VECTOR('',#1259,1.);
#290=VECTOR('',#1266,1.);
#291=VECTOR('',#1269,1.);
#292=VECTOR('',#1272,1.);
#293=VECTOR('',#1273,1.00000000000064);
#294=VECTOR('',#1274,1.);
#295=VECTOR('',#1275,1.);
#296=VECTOR('',#1276,1.00000000000064);
#297=VECTOR('',#1277,1.);
#298=VECTOR('',#1280,1.);
#299=VECTOR('',#1285,1.);
#300=VECTOR('',#1288,1.);
#301=VECTOR('',#1293,1.);
#302=VECTOR('',#1300,1.);
#303=VECTOR('',#1303,1.);
#304=VECTOR('',#1306,1.);
#305=VECTOR('',#1309,0.999999999999563);
#306=VECTOR('',#1310,1.);
#307=VECTOR('',#1311,0.999999999999563);
#308=VECTOR('',#1316,1.);
#309=VECTOR('',#1319,1.);
#310=VECTOR('',#1324,1.);
#311=VECTOR('',#1325,1.);
#312=VECTOR('',#1326,1.);
#313=VECTOR('',#1327,1.);
#314=VECTOR('',#1328,1.);
#315=VECTOR('',#1333,1.);
#316=VECTOR('',#1338,1.00000000000064);
#317=VECTOR('',#1339,1.);
#318=VECTOR('',#1342,1.);
#319=VECTOR('',#1345,1.);
#320=VECTOR('',#1346,1.00000000000064);
#321=VECTOR('',#1347,1.);
#322=VECTOR('',#1348,1.);
#323=VECTOR('',#1349,1.);
#324=VECTOR('',#1352,1.);
#325=VECTOR('',#1359,1.);
#326=VECTOR('',#1364,1.);
#327=VECTOR('',#1365,1.);
#328=VECTOR('',#1366,1.);
#329=VECTOR('',#1367,1.);
#330=VECTOR('',#1370,1.);
#331=VECTOR('',#1371,1.);
#332=VECTOR('',#1372,1.);
#333=VECTOR('',#1375,1.);
#334=VECTOR('',#1378,1.);
#335=VECTOR('',#1379,1.);
#336=VECTOR('',#1382,1.);
#337=VECTOR('',#1385,1.);
#338=VECTOR('',#1388,1.);
#339=VECTOR('',#1389,1.);
#340=VECTOR('',#1394,1.);
#341=VECTOR('',#1395,1.);
#342=VECTOR('',#1398,1.);
#343=VECTOR('',#1399,1.);
#344=VECTOR('',#1400,1.);
#345=VECTOR('',#1405,1.00000000000064);
#346=VECTOR('',#1406,1.);
#347=VECTOR('',#1409,1.);
#348=VECTOR('',#1412,1.);
#349=VECTOR('',#1415,1.);
#350=VECTOR('',#1418,1.00000000000064);
#351=VECTOR('',#1419,1.);
#352=VECTOR('',#1422,1.);
#353=VECTOR('',#1427,1.);
#354=VECTOR('',#1430,1.);
#355=VECTOR('',#1433,1.);
#356=VECTOR('',#1438,1.);
#357=VECTOR('',#1439,1.);
#358=VECTOR('',#1442,1.);
#359=VECTOR('',#1451,1.);
#360=VECTOR('',#1454,1.);
#361=VECTOR('',#1459,1.);
#362=VECTOR('',#1462,1.);
#363=VECTOR('',#1475,1.00000000000064);
#364=VECTOR('',#1476,1.00000000000064);
#365=VECTOR('',#1477,1.00000000000064);
#366=VECTOR('',#1478,1.00000000000064);
#367=VECTOR('',#1497,1.00000000000064);
#368=VECTOR('',#1498,1.00000000000064);
#369=VECTOR('',#1499,1.00000000000064);
#370=VECTOR('',#1500,1.00000000000064);
#371=VECTOR('',#1509,1.);
#372=VECTOR('',#1522,1.);
#373=VECTOR('',#1535,1.);
#374=VECTOR('',#1538,1.);
#375=CIRCLE('',#1100,0.7874);
#376=CIRCLE('',#1103,0.7874);
#377=CIRCLE('',#1105,1.1938);
#378=CIRCLE('',#1106,1.1938);
#379=CIRCLE('',#1107,1.1938);
#380=CIRCLE('',#1110,1.6002);
#381=CIRCLE('',#1111,1.6002);
#382=CIRCLE('',#1112,1.6002);
#383=CIRCLE('',#1115,0.7874);
#384=CIRCLE('',#1117,0.254);
#385=CIRCLE('',#1118,0.254);
#386=CIRCLE('',#1119,1.73061673976);
#387=CIRCLE('',#1120,1.73061673976);
#388=CIRCLE('',#1123,0.7874);
#389=CIRCLE('',#1125,1.6002);
#390=CIRCLE('',#1126,1.6002);
#391=CIRCLE('',#1127,1.6002);
#392=CIRCLE('',#1130,1.1938);
#393=CIRCLE('',#1131,1.1938);
#394=CIRCLE('',#1132,1.1938);
#395=CIRCLE('',#1136,0.381);
#396=CIRCLE('',#1138,0.254);
#397=CIRCLE('',#1139,0.254);
#398=CIRCLE('',#1140,1.6002);
#399=CIRCLE('',#1141,1.6002);
#400=CIRCLE('',#1144,0.381);
#401=CIRCLE('',#1172,0.930774387893);
#402=CIRCLE('',#1173,0.930774387893);
#403=CIRCLE('',#1175,0.930774387893);
#404=CIRCLE('',#1176,0.930774387893);
#405=CIRCLE('',#1178,0.334502198803);
#406=CIRCLE('',#1179,1.1938);
#407=CIRCLE('',#1180,0.334502198803);
#408=CIRCLE('',#1182,1.379787193947);
#409=CIRCLE('',#1184,0.635);
#410=CIRCLE('',#1185,0.635);
#411=CIRCLE('',#1187,0.334502198803);
#412=CIRCLE('',#1188,1.1938);
#413=CIRCLE('',#1189,0.334502198803);
#414=CIRCLE('',#1191,1.379787193947);
#415=CIRCLE('',#1193,0.635);
#416=CIRCLE('',#1194,0.635);
#417=CIRCLE('',#1197,0.638359755388);
#418=CIRCLE('',#1198,0.638359755388);
#419=CIRCLE('',#1200,0.638359755388);
#420=CIRCLE('',#1201,0.638359755388);
#421=CIRCLE('',#1210,1.27);
#422=CIRCLE('',#1211,1.27);
#423=CIRCLE('',#1213,1.27);
#424=CIRCLE('',#1215,1.27);
#425=VERTEX_POINT('',#1557);
#426=VERTEX_POINT('',#1558);
#427=VERTEX_POINT('',#1560);
#428=VERTEX_POINT('',#1564);
#429=VERTEX_POINT('',#1565);
#430=VERTEX_POINT('',#1570);
#431=VERTEX_POINT('',#1571);
#432=VERTEX_POINT('',#1573);
#433=VERTEX_POINT('',#1577);
#434=VERTEX_POINT('',#1578);
#435=VERTEX_POINT('',#1580);
#436=VERTEX_POINT('',#1582);
#437=VERTEX_POINT('',#1584);
#438=VERTEX_POINT('',#1586);
#439=VERTEX_POINT('',#1590);
#440=VERTEX_POINT('',#1592);
#441=VERTEX_POINT('',#1596);
#442=VERTEX_POINT('',#1598);
#443=VERTEX_POINT('',#1600);
#444=VERTEX_POINT('',#1602);
#445=VERTEX_POINT('',#1606);
#446=VERTEX_POINT('',#1608);
#447=VERTEX_POINT('',#1610);
#448=VERTEX_POINT('',#1614);
#449=VERTEX_POINT('',#1615);
#450=VERTEX_POINT('',#1617);
#451=VERTEX_POINT('',#1619);
#452=VERTEX_POINT('',#1622);
#453=VERTEX_POINT('',#1624);
#454=VERTEX_POINT('',#1626);
#455=VERTEX_POINT('',#1628);
#456=VERTEX_POINT('',#1631);
#457=VERTEX_POINT('',#1632);
#458=VERTEX_POINT('',#1634);
#459=VERTEX_POINT('',#1636);
#460=VERTEX_POINT('',#1641);
#461=VERTEX_POINT('',#1645);
#462=VERTEX_POINT('',#1646);
#463=VERTEX_POINT('',#1648);
#464=VERTEX_POINT('',#1650);
#465=VERTEX_POINT('',#1652);
#466=VERTEX_POINT('',#1654);
#467=VERTEX_POINT('',#1658);
#468=VERTEX_POINT('',#1660);
#469=VERTEX_POINT('',#1664);
#470=VERTEX_POINT('',#1666);
#471=VERTEX_POINT('',#1668);
#472=VERTEX_POINT('',#1670);
#473=VERTEX_POINT('',#1674);
#474=VERTEX_POINT('',#1676);
#475=VERTEX_POINT('',#1678);
#476=VERTEX_POINT('',#1680);
#477=VERTEX_POINT('',#1684);
#478=VERTEX_POINT('',#1686);
#479=VERTEX_POINT('',#1690);
#480=VERTEX_POINT('',#1692);
#481=VERTEX_POINT('',#1694);
#482=VERTEX_POINT('',#1696);
#483=VERTEX_POINT('',#1698);
#484=VERTEX_POINT('',#1700);
#485=VERTEX_POINT('',#1702);
#486=VERTEX_POINT('',#1704);
#487=VERTEX_POINT('',#1707);
#488=VERTEX_POINT('',#1708);
#489=VERTEX_POINT('',#1710);
#490=VERTEX_POINT('',#1712);
#491=VERTEX_POINT('',#1716);
#492=VERTEX_POINT('',#1718);
#493=VERTEX_POINT('',#1722);
#494=VERTEX_POINT('',#1723);
#495=VERTEX_POINT('',#1729);
#496=VERTEX_POINT('',#1731);
#497=VERTEX_POINT('',#1748);
#498=VERTEX_POINT('',#1752);
#499=VERTEX_POINT('',#1787);
#500=VERTEX_POINT('',#1788);
#501=VERTEX_POINT('',#1790);
#502=VERTEX_POINT('',#1792);
#503=VERTEX_POINT('',#1796);
#504=VERTEX_POINT('',#1797);
#505=VERTEX_POINT('',#1799);
#506=VERTEX_POINT('',#1801);
#507=VERTEX_POINT('',#1805);
#508=VERTEX_POINT('',#1807);
#509=VERTEX_POINT('',#1811);
#510=VERTEX_POINT('',#1812);
#511=VERTEX_POINT('',#1814);
#512=VERTEX_POINT('',#1817);
#513=VERTEX_POINT('',#1824);
#514=VERTEX_POINT('',#1826);
#515=VERTEX_POINT('',#1830);
#516=VERTEX_POINT('',#1831);
#517=VERTEX_POINT('',#1833);
#518=VERTEX_POINT('',#1836);
#519=EDGE_CURVE('',#425,#426,#375,.T.);
#520=EDGE_CURVE('',#427,#426,#175,.T.);
#521=EDGE_CURVE('',#425,#427,#176,.T.);
#522=EDGE_CURVE('',#428,#429,#177,.T.);
#523=EDGE_CURVE('',#428,#425,#178,.T.);
#524=EDGE_CURVE('',#429,#427,#179,.T.);
#525=EDGE_CURVE('',#430,#431,#180,.T.);
#526=EDGE_CURVE('',#430,#432,#181,.T.);
#527=EDGE_CURVE('',#432,#431,#376,.T.);
#528=EDGE_CURVE('',#433,#434,#377,.T.);
#529=EDGE_CURVE('',#434,#435,#182,.T.);
#530=EDGE_CURVE('',#435,#436,#378,.T.);
#531=EDGE_CURVE('',#437,#436,#183,.T.);
#532=EDGE_CURVE('',#438,#437,#379,.T.);
#533=EDGE_CURVE('',#438,#433,#184,.T.);
#534=EDGE_CURVE('',#439,#436,#185,.T.);
#535=EDGE_CURVE('',#440,#439,#186,.T.);
#536=EDGE_CURVE('',#440,#437,#187,.T.);
#537=EDGE_CURVE('',#441,#439,#380,.T.);
#538=EDGE_CURVE('',#442,#441,#188,.T.);
#539=EDGE_CURVE('',#443,#442,#381,.T.);
#540=EDGE_CURVE('',#444,#443,#189,.T.);
#541=EDGE_CURVE('',#444,#440,#382,.T.);
#542=EDGE_CURVE('',#432,#445,#25,.T.);
#543=EDGE_CURVE('',#446,#445,#190,.T.);
#544=EDGE_CURVE('',#446,#447,#383,.T.);
#545=EDGE_CURVE('',#447,#431,#191,.T.);
#546=EDGE_CURVE('',#448,#449,#192,.T.);
#547=EDGE_CURVE('',#449,#450,#193,.T.);
#548=EDGE_CURVE('',#451,#450,#194,.T.);
#549=EDGE_CURVE('',#451,#446,#195,.T.);
#550=EDGE_CURVE('',#445,#452,#196,.T.);
#551=EDGE_CURVE('',#452,#453,#197,.T.);
#552=EDGE_CURVE('',#453,#454,#384,.T.);
#553=EDGE_CURVE('',#454,#455,#198,.T.);
#554=EDGE_CURVE('',#455,#448,#385,.T.);
#555=EDGE_CURVE('',#456,#457,#386,.T.);
#556=EDGE_CURVE('',#457,#458,#199,.T.);
#557=EDGE_CURVE('',#458,#459,#387,.T.);
#558=EDGE_CURVE('',#459,#456,#200,.T.);
#559=EDGE_CURVE('',#450,#426,#26,.T.);
#560=EDGE_CURVE('',#460,#425,#201,.T.);
#561=EDGE_CURVE('',#460,#451,#388,.T.);
#562=EDGE_CURVE('',#461,#462,#389,.T.);
#563=EDGE_CURVE('',#463,#461,#202,.T.);
#564=EDGE_CURVE('',#464,#463,#390,.T.);
#565=EDGE_CURVE('',#465,#464,#203,.T.);
#566=EDGE_CURVE('',#465,#466,#391,.T.);
#567=EDGE_CURVE('',#466,#462,#204,.T.);
#568=EDGE_CURVE('',#467,#464,#205,.T.);
#569=EDGE_CURVE('',#468,#467,#206,.T.);
#570=EDGE_CURVE('',#468,#465,#207,.T.);
#571=EDGE_CURVE('',#467,#469,#392,.T.);
#572=EDGE_CURVE('',#469,#470,#208,.T.);
#573=EDGE_CURVE('',#470,#471,#393,.T.);
#574=EDGE_CURVE('',#472,#471,#209,.T.);
#575=EDGE_CURVE('',#468,#472,#394,.T.);
#576=EDGE_CURVE('',#471,#473,#210,.T.);
#577=EDGE_CURVE('',#473,#474,#211,.T.);
#578=EDGE_CURVE('',#475,#474,#212,.T.);
#579=EDGE_CURVE('',#476,#475,#213,.T.);
#580=EDGE_CURVE('',#472,#476,#214,.T.);
#581=EDGE_CURVE('',#477,#475,#27,.T.);
#582=EDGE_CURVE('',#478,#477,#215,.T.);
#583=EDGE_CURVE('',#476,#478,#395,.T.);
#584=EDGE_CURVE('',#479,#477,#216,.T.);
#585=EDGE_CURVE('',#480,#479,#217,.T.);
#586=EDGE_CURVE('',#481,#480,#396,.T.);
#587=EDGE_CURVE('',#482,#481,#218,.T.);
#588=EDGE_CURVE('',#483,#482,#397,.T.);
#589=EDGE_CURVE('',#484,#483,#219,.T.);
#590=EDGE_CURVE('',#485,#484,#220,.T.);
#591=EDGE_CURVE('',#486,#485,#221,.T.);
#592=EDGE_CURVE('',#478,#486,#222,.T.);
#593=EDGE_CURVE('',#487,#488,#223,.T.);
#594=EDGE_CURVE('',#488,#489,#398,.T.);
#595=EDGE_CURVE('',#489,#490,#224,.T.);
#596=EDGE_CURVE('',#490,#487,#399,.T.);
#597=EDGE_CURVE('',#491,#485,#28,.T.);
#598=EDGE_CURVE('',#492,#491,#225,.T.);
#599=EDGE_CURVE('',#486,#492,#400,.T.);
#600=EDGE_CURVE('',#493,#494,#226,.T.);
#601=EDGE_CURVE('',#494,#433,#227,.T.);
#602=EDGE_CURVE('',#492,#438,#228,.T.);
#603=EDGE_CURVE('',#493,#491,#229,.T.);
#604=EDGE_CURVE('',#431,#495,#230,.T.);
#605=EDGE_CURVE('',#496,#495,#231,.T.);
#606=EDGE_CURVE('',#430,#496,#232,.T.);
#607=EDGE_CURVE('',#466,#472,#233,.T.);
#608=EDGE_CURVE('',#451,#478,#234,.T.);
#609=EDGE_CURVE('',#476,#460,#235,.T.);
#610=EDGE_CURVE('',#486,#446,#236,.T.);
#611=EDGE_CURVE('',#447,#492,#237,.T.);
#612=EDGE_CURVE('',#447,#444,#238,.T.);
#613=EDGE_CURVE('',#438,#444,#239,.T.);
#614=EDGE_CURVE('',#497,#443,#240,.T.);
#615=EDGE_CURVE('',#495,#497,#241,.T.);
#616=EDGE_CURVE('',#498,#462,#242,.T.);
#617=EDGE_CURVE('',#466,#460,#243,.T.);
#618=EDGE_CURVE('',#498,#428,#244,.T.);
#619=EDGE_CURVE('',#429,#474,#245,.T.);
#620=EDGE_CURVE('',#479,#449,#246,.T.);
#621=EDGE_CURVE('',#480,#448,#247,.T.);
#622=EDGE_CURVE('',#481,#455,#248,.T.);
#623=EDGE_CURVE('',#482,#454,#249,.T.);
#624=EDGE_CURVE('',#493,#496,#250,.T.);
#625=EDGE_CURVE('',#484,#452,#251,.T.);
#626=EDGE_CURVE('',#483,#453,#252,.T.);
#627=EDGE_CURVE('',#497,#494,#253,.T.);
#628=EDGE_CURVE('',#434,#442,#254,.T.);
#629=EDGE_CURVE('',#435,#441,#255,.T.);
#630=EDGE_CURVE('',#470,#461,#256,.T.);
#631=EDGE_CURVE('',#469,#463,#257,.T.);
#632=EDGE_CURVE('',#473,#498,#258,.T.);
#633=EDGE_CURVE('',#499,#500,#401,.T.);
#634=EDGE_CURVE('',#501,#499,#259,.T.);
#635=EDGE_CURVE('',#501,#502,#402,.T.);
#636=EDGE_CURVE('',#502,#500,#260,.T.);
#637=EDGE_CURVE('',#503,#504,#403,.T.);
#638=EDGE_CURVE('',#505,#504,#261,.T.);
#639=EDGE_CURVE('',#506,#505,#404,.T.);
#640=EDGE_CURVE('',#506,#503,#262,.T.);
#641=EDGE_CURVE('',#507,#503,#405,.T.);
#642=EDGE_CURVE('',#507,#508,#406,.T.);
#643=EDGE_CURVE('',#508,#504,#407,.T.);
#644=EDGE_CURVE('',#509,#510,#408,.T.);
#645=EDGE_CURVE('',#510,#511,#263,.T.);
#646=EDGE_CURVE('',#489,#511,#264,.T.);
#647=EDGE_CURVE('',#512,#488,#265,.T.);
#648=EDGE_CURVE('',#509,#512,#266,.T.);
#649=EDGE_CURVE('',#499,#509,#409,.T.);
#650=EDGE_CURVE('',#500,#510,#410,.T.);
#651=EDGE_CURVE('',#513,#505,#411,.T.);
#652=EDGE_CURVE('',#514,#513,#412,.T.);
#653=EDGE_CURVE('',#514,#506,#413,.T.);
#654=EDGE_CURVE('',#515,#516,#414,.T.);
#655=EDGE_CURVE('',#515,#517,#267,.T.);
#656=EDGE_CURVE('',#517,#487,#268,.T.);
#657=EDGE_CURVE('',#490,#518,#269,.T.);
#658=EDGE_CURVE('',#516,#518,#270,.T.);
#659=EDGE_CURVE('',#501,#515,#415,.T.);
#660=EDGE_CURVE('',#502,#516,#416,.T.);
#661=EDGE_CURVE('',#517,#512,#271,.T.);
#662=EDGE_CURVE('',#499,#512,#417,.T.);
#663=EDGE_CURVE('',#501,#517,#418,.T.);
#664=EDGE_CURVE('',#511,#500,#419,.T.);
#665=EDGE_CURVE('',#518,#502,#420,.T.);
#666=EDGE_CURVE('',#518,#511,#272,.T.);
#667=EDGE_CURVE('',#514,#507,#273,.T.);
#668=EDGE_CURVE('',#513,#508,#274,.T.);
#669=EDGE_CURVE('',#456,#508,#421,.T.);
#670=EDGE_CURVE('',#513,#459,#422,.T.);
#671=EDGE_CURVE('',#514,#458,#423,.T.);
#672=EDGE_CURVE('',#457,#507,#424,.T.);
#673=ORIENTED_EDGE('',*,*,#519,.T.);
#674=ORIENTED_EDGE('',*,*,#520,.F.);
#675=ORIENTED_EDGE('',*,*,#521,.F.);
#676=ORIENTED_EDGE('',*,*,#522,.F.);
#677=ORIENTED_EDGE('',*,*,#523,.T.);
#678=ORIENTED_EDGE('',*,*,#521,.T.);
#679=ORIENTED_EDGE('',*,*,#524,.F.);
#680=ORIENTED_EDGE('',*,*,#525,.F.);
#681=ORIENTED_EDGE('',*,*,#526,.T.);
#682=ORIENTED_EDGE('',*,*,#527,.T.);
#683=ORIENTED_EDGE('',*,*,#528,.T.);
#684=ORIENTED_EDGE('',*,*,#529,.T.);
#685=ORIENTED_EDGE('',*,*,#530,.T.);
#686=ORIENTED_EDGE('',*,*,#531,.F.);
#687=ORIENTED_EDGE('',*,*,#532,.F.);
#688=ORIENTED_EDGE('',*,*,#533,.T.);
#689=ORIENTED_EDGE('',*,*,#534,.F.);
#690=ORIENTED_EDGE('',*,*,#535,.F.);
#691=ORIENTED_EDGE('',*,*,#536,.T.);
#692=ORIENTED_EDGE('',*,*,#531,.T.);
#693=ORIENTED_EDGE('',*,*,#537,.F.);
#694=ORIENTED_EDGE('',*,*,#538,.F.);
#695=ORIENTED_EDGE('',*,*,#539,.F.);
#696=ORIENTED_EDGE('',*,*,#540,.F.);
#697=ORIENTED_EDGE('',*,*,#541,.T.);
#698=ORIENTED_EDGE('',*,*,#535,.T.);
#699=ORIENTED_EDGE('',*,*,#527,.F.);
#700=ORIENTED_EDGE('',*,*,#542,.T.);
#701=ORIENTED_EDGE('',*,*,#543,.F.);
#702=ORIENTED_EDGE('',*,*,#544,.T.);
#703=ORIENTED_EDGE('',*,*,#545,.T.);
#704=ORIENTED_EDGE('',*,*,#546,.T.);
#705=ORIENTED_EDGE('',*,*,#547,.T.);
#706=ORIENTED_EDGE('',*,*,#548,.F.);
#707=ORIENTED_EDGE('',*,*,#549,.T.);
#708=ORIENTED_EDGE('',*,*,#543,.T.);
#709=ORIENTED_EDGE('',*,*,#550,.T.);
#710=ORIENTED_EDGE('',*,*,#551,.T.);
#711=ORIENTED_EDGE('',*,*,#552,.T.);
#712=ORIENTED_EDGE('',*,*,#553,.T.);
#713=ORIENTED_EDGE('',*,*,#554,.T.);
#714=ORIENTED_EDGE('',*,*,#555,.T.);
#715=ORIENTED_EDGE('',*,*,#556,.T.);
#716=ORIENTED_EDGE('',*,*,#557,.T.);
#717=ORIENTED_EDGE('',*,*,#558,.T.);
#718=ORIENTED_EDGE('',*,*,#548,.T.);
#719=ORIENTED_EDGE('',*,*,#559,.T.);
#720=ORIENTED_EDGE('',*,*,#519,.F.);
#721=ORIENTED_EDGE('',*,*,#560,.F.);
#722=ORIENTED_EDGE('',*,*,#561,.T.);
#723=ORIENTED_EDGE('',*,*,#562,.F.);
#724=ORIENTED_EDGE('',*,*,#563,.F.);
#725=ORIENTED_EDGE('',*,*,#564,.F.);
#726=ORIENTED_EDGE('',*,*,#565,.F.);
#727=ORIENTED_EDGE('',*,*,#566,.T.);
#728=ORIENTED_EDGE('',*,*,#567,.T.);
#729=ORIENTED_EDGE('',*,*,#568,.F.);
#730=ORIENTED_EDGE('',*,*,#569,.F.);
#731=ORIENTED_EDGE('',*,*,#570,.T.);
#732=ORIENTED_EDGE('',*,*,#565,.T.);
#733=ORIENTED_EDGE('',*,*,#571,.T.);
#734=ORIENTED_EDGE('',*,*,#572,.T.);
#735=ORIENTED_EDGE('',*,*,#573,.T.);
#736=ORIENTED_EDGE('',*,*,#574,.F.);
#737=ORIENTED_EDGE('',*,*,#575,.F.);
#738=ORIENTED_EDGE('',*,*,#569,.T.);
#739=ORIENTED_EDGE('',*,*,#574,.T.);
#740=ORIENTED_EDGE('',*,*,#576,.T.);
#741=ORIENTED_EDGE('',*,*,#577,.T.);
#742=ORIENTED_EDGE('',*,*,#578,.F.);
#743=ORIENTED_EDGE('',*,*,#579,.F.);
#744=ORIENTED_EDGE('',*,*,#580,.F.);
#745=ORIENTED_EDGE('',*,*,#579,.T.);
#746=ORIENTED_EDGE('',*,*,#581,.F.);
#747=ORIENTED_EDGE('',*,*,#582,.F.);
#748=ORIENTED_EDGE('',*,*,#583,.F.);
#749=ORIENTED_EDGE('',*,*,#584,.F.);
#750=ORIENTED_EDGE('',*,*,#585,.F.);
#751=ORIENTED_EDGE('',*,*,#586,.F.);
#752=ORIENTED_EDGE('',*,*,#587,.F.);
#753=ORIENTED_EDGE('',*,*,#588,.F.);
#754=ORIENTED_EDGE('',*,*,#589,.F.);
#755=ORIENTED_EDGE('',*,*,#590,.F.);
#756=ORIENTED_EDGE('',*,*,#591,.F.);
#757=ORIENTED_EDGE('',*,*,#592,.F.);
#758=ORIENTED_EDGE('',*,*,#582,.T.);
#759=ORIENTED_EDGE('',*,*,#593,.T.);
#760=ORIENTED_EDGE('',*,*,#594,.T.);
#761=ORIENTED_EDGE('',*,*,#595,.T.);
#762=ORIENTED_EDGE('',*,*,#596,.T.);
#763=ORIENTED_EDGE('',*,*,#591,.T.);
#764=ORIENTED_EDGE('',*,*,#597,.F.);
#765=ORIENTED_EDGE('',*,*,#598,.F.);
#766=ORIENTED_EDGE('',*,*,#599,.F.);
#767=ORIENTED_EDGE('',*,*,#600,.T.);
#768=ORIENTED_EDGE('',*,*,#601,.T.);
#769=ORIENTED_EDGE('',*,*,#533,.F.);
#770=ORIENTED_EDGE('',*,*,#602,.F.);
#771=ORIENTED_EDGE('',*,*,#598,.T.);
#772=ORIENTED_EDGE('',*,*,#603,.F.);
#773=ORIENTED_EDGE('',*,*,#604,.T.);
#774=ORIENTED_EDGE('',*,*,#605,.F.);
#775=ORIENTED_EDGE('',*,*,#606,.F.);
#776=ORIENTED_EDGE('',*,*,#525,.T.);
#777=ORIENTED_EDGE('',*,*,#607,.F.);
#778=ORIENTED_EDGE('',*,*,#566,.F.);
#779=ORIENTED_EDGE('',*,*,#570,.F.);
#780=ORIENTED_EDGE('',*,*,#575,.T.);
#781=ORIENTED_EDGE('',*,*,#608,.F.);
#782=ORIENTED_EDGE('',*,*,#561,.F.);
#783=ORIENTED_EDGE('',*,*,#609,.F.);
#784=ORIENTED_EDGE('',*,*,#583,.T.);
#785=ORIENTED_EDGE('',*,*,#549,.F.);
#786=ORIENTED_EDGE('',*,*,#608,.T.);
#787=ORIENTED_EDGE('',*,*,#592,.T.);
#788=ORIENTED_EDGE('',*,*,#610,.T.);
#789=ORIENTED_EDGE('',*,*,#611,.F.);
#790=ORIENTED_EDGE('',*,*,#544,.F.);
#791=ORIENTED_EDGE('',*,*,#610,.F.);
#792=ORIENTED_EDGE('',*,*,#599,.T.);
#793=ORIENTED_EDGE('',*,*,#612,.F.);
#794=ORIENTED_EDGE('',*,*,#611,.T.);
#795=ORIENTED_EDGE('',*,*,#602,.T.);
#796=ORIENTED_EDGE('',*,*,#613,.T.);
#797=ORIENTED_EDGE('',*,*,#613,.F.);
#798=ORIENTED_EDGE('',*,*,#532,.T.);
#799=ORIENTED_EDGE('',*,*,#536,.F.);
#800=ORIENTED_EDGE('',*,*,#541,.F.);
#801=ORIENTED_EDGE('',*,*,#614,.F.);
#802=ORIENTED_EDGE('',*,*,#615,.F.);
#803=ORIENTED_EDGE('',*,*,#604,.F.);
#804=ORIENTED_EDGE('',*,*,#545,.F.);
#805=ORIENTED_EDGE('',*,*,#612,.T.);
#806=ORIENTED_EDGE('',*,*,#540,.T.);
#807=ORIENTED_EDGE('',*,*,#616,.T.);
#808=ORIENTED_EDGE('',*,*,#567,.F.);
#809=ORIENTED_EDGE('',*,*,#617,.T.);
#810=ORIENTED_EDGE('',*,*,#560,.T.);
#811=ORIENTED_EDGE('',*,*,#523,.F.);
#812=ORIENTED_EDGE('',*,*,#618,.F.);
#813=ORIENTED_EDGE('',*,*,#580,.T.);
#814=ORIENTED_EDGE('',*,*,#609,.T.);
#815=ORIENTED_EDGE('',*,*,#617,.F.);
#816=ORIENTED_EDGE('',*,*,#607,.T.);
#817=ORIENTED_EDGE('',*,*,#619,.F.);
#818=ORIENTED_EDGE('',*,*,#524,.T.);
#819=ORIENTED_EDGE('',*,*,#520,.T.);
#820=ORIENTED_EDGE('',*,*,#559,.F.);
#821=ORIENTED_EDGE('',*,*,#547,.F.);
#822=ORIENTED_EDGE('',*,*,#620,.F.);
#823=ORIENTED_EDGE('',*,*,#584,.T.);
#824=ORIENTED_EDGE('',*,*,#581,.T.);
#825=ORIENTED_EDGE('',*,*,#578,.T.);
#826=ORIENTED_EDGE('',*,*,#585,.T.);
#827=ORIENTED_EDGE('',*,*,#620,.T.);
#828=ORIENTED_EDGE('',*,*,#546,.F.);
#829=ORIENTED_EDGE('',*,*,#621,.F.);
#830=ORIENTED_EDGE('',*,*,#622,.F.);
#831=ORIENTED_EDGE('',*,*,#586,.T.);
#832=ORIENTED_EDGE('',*,*,#621,.T.);
#833=ORIENTED_EDGE('',*,*,#554,.F.);
#834=ORIENTED_EDGE('',*,*,#587,.T.);
#835=ORIENTED_EDGE('',*,*,#622,.T.);
#836=ORIENTED_EDGE('',*,*,#553,.F.);
#837=ORIENTED_EDGE('',*,*,#623,.F.);
#838=ORIENTED_EDGE('',*,*,#624,.F.);
#839=ORIENTED_EDGE('',*,*,#603,.T.);
#840=ORIENTED_EDGE('',*,*,#597,.T.);
#841=ORIENTED_EDGE('',*,*,#590,.T.);
#842=ORIENTED_EDGE('',*,*,#625,.T.);
#843=ORIENTED_EDGE('',*,*,#550,.F.);
#844=ORIENTED_EDGE('',*,*,#542,.F.);
#845=ORIENTED_EDGE('',*,*,#526,.F.);
#846=ORIENTED_EDGE('',*,*,#606,.T.);
#847=ORIENTED_EDGE('',*,*,#589,.T.);
#848=ORIENTED_EDGE('',*,*,#626,.T.);
#849=ORIENTED_EDGE('',*,*,#551,.F.);
#850=ORIENTED_EDGE('',*,*,#625,.F.);
#851=ORIENTED_EDGE('',*,*,#626,.F.);
#852=ORIENTED_EDGE('',*,*,#588,.T.);
#853=ORIENTED_EDGE('',*,*,#623,.T.);
#854=ORIENTED_EDGE('',*,*,#552,.F.);
#855=ORIENTED_EDGE('',*,*,#624,.T.);
#856=ORIENTED_EDGE('',*,*,#605,.T.);
#857=ORIENTED_EDGE('',*,*,#615,.T.);
#858=ORIENTED_EDGE('',*,*,#627,.T.);
#859=ORIENTED_EDGE('',*,*,#600,.F.);
#860=ORIENTED_EDGE('',*,*,#539,.T.);
#861=ORIENTED_EDGE('',*,*,#628,.F.);
#862=ORIENTED_EDGE('',*,*,#528,.F.);
#863=ORIENTED_EDGE('',*,*,#601,.F.);
#864=ORIENTED_EDGE('',*,*,#627,.F.);
#865=ORIENTED_EDGE('',*,*,#614,.T.);
#866=ORIENTED_EDGE('',*,*,#628,.T.);
#867=ORIENTED_EDGE('',*,*,#538,.T.);
#868=ORIENTED_EDGE('',*,*,#629,.F.);
#869=ORIENTED_EDGE('',*,*,#529,.F.);
#870=ORIENTED_EDGE('',*,*,#629,.T.);
#871=ORIENTED_EDGE('',*,*,#537,.T.);
#872=ORIENTED_EDGE('',*,*,#534,.T.);
#873=ORIENTED_EDGE('',*,*,#530,.F.);
#874=ORIENTED_EDGE('',*,*,#563,.T.);
#875=ORIENTED_EDGE('',*,*,#630,.F.);
#876=ORIENTED_EDGE('',*,*,#572,.F.);
#877=ORIENTED_EDGE('',*,*,#631,.T.);
#878=ORIENTED_EDGE('',*,*,#562,.T.);
#879=ORIENTED_EDGE('',*,*,#616,.F.);
#880=ORIENTED_EDGE('',*,*,#632,.F.);
#881=ORIENTED_EDGE('',*,*,#576,.F.);
#882=ORIENTED_EDGE('',*,*,#573,.F.);
#883=ORIENTED_EDGE('',*,*,#630,.T.);
#884=ORIENTED_EDGE('',*,*,#632,.T.);
#885=ORIENTED_EDGE('',*,*,#618,.T.);
#886=ORIENTED_EDGE('',*,*,#522,.T.);
#887=ORIENTED_EDGE('',*,*,#619,.T.);
#888=ORIENTED_EDGE('',*,*,#577,.F.);
#889=ORIENTED_EDGE('',*,*,#564,.T.);
#890=ORIENTED_EDGE('',*,*,#631,.F.);
#891=ORIENTED_EDGE('',*,*,#571,.F.);
#892=ORIENTED_EDGE('',*,*,#568,.T.);
#893=ORIENTED_EDGE('',*,*,#633,.F.);
#894=ORIENTED_EDGE('',*,*,#634,.F.);
#895=ORIENTED_EDGE('',*,*,#635,.T.);
#896=ORIENTED_EDGE('',*,*,#636,.T.);
#897=ORIENTED_EDGE('',*,*,#637,.T.);
#898=ORIENTED_EDGE('',*,*,#638,.F.);
#899=ORIENTED_EDGE('',*,*,#639,.F.);
#900=ORIENTED_EDGE('',*,*,#640,.T.);
#901=ORIENTED_EDGE('',*,*,#641,.F.);
#902=ORIENTED_EDGE('',*,*,#642,.T.);
#903=ORIENTED_EDGE('',*,*,#643,.T.);
#904=ORIENTED_EDGE('',*,*,#637,.F.);
#905=ORIENTED_EDGE('',*,*,#644,.T.);
#906=ORIENTED_EDGE('',*,*,#645,.T.);
#907=ORIENTED_EDGE('',*,*,#646,.F.);
#908=ORIENTED_EDGE('',*,*,#594,.F.);
#909=ORIENTED_EDGE('',*,*,#647,.F.);
#910=ORIENTED_EDGE('',*,*,#648,.F.);
#911=ORIENTED_EDGE('',*,*,#649,.F.);
#912=ORIENTED_EDGE('',*,*,#633,.T.);
#913=ORIENTED_EDGE('',*,*,#650,.T.);
#914=ORIENTED_EDGE('',*,*,#644,.F.);
#915=ORIENTED_EDGE('',*,*,#651,.F.);
#916=ORIENTED_EDGE('',*,*,#652,.F.);
#917=ORIENTED_EDGE('',*,*,#653,.T.);
#918=ORIENTED_EDGE('',*,*,#639,.T.);
#919=ORIENTED_EDGE('',*,*,#654,.F.);
#920=ORIENTED_EDGE('',*,*,#655,.T.);
#921=ORIENTED_EDGE('',*,*,#656,.T.);
#922=ORIENTED_EDGE('',*,*,#596,.F.);
#923=ORIENTED_EDGE('',*,*,#657,.T.);
#924=ORIENTED_EDGE('',*,*,#658,.F.);
#925=ORIENTED_EDGE('',*,*,#659,.T.);
#926=ORIENTED_EDGE('',*,*,#654,.T.);
#927=ORIENTED_EDGE('',*,*,#660,.F.);
#928=ORIENTED_EDGE('',*,*,#635,.F.);
#929=ORIENTED_EDGE('',*,*,#647,.T.);
#930=ORIENTED_EDGE('',*,*,#593,.F.);
#931=ORIENTED_EDGE('',*,*,#656,.F.);
#932=ORIENTED_EDGE('',*,*,#661,.T.);
#933=ORIENTED_EDGE('',*,*,#662,.T.);
#934=ORIENTED_EDGE('',*,*,#661,.F.);
#935=ORIENTED_EDGE('',*,*,#663,.F.);
#936=ORIENTED_EDGE('',*,*,#634,.T.);
#937=ORIENTED_EDGE('',*,*,#664,.T.);
#938=ORIENTED_EDGE('',*,*,#636,.F.);
#939=ORIENTED_EDGE('',*,*,#665,.F.);
#940=ORIENTED_EDGE('',*,*,#666,.T.);
#941=ORIENTED_EDGE('',*,*,#646,.T.);
#942=ORIENTED_EDGE('',*,*,#666,.F.);
#943=ORIENTED_EDGE('',*,*,#657,.F.);
#944=ORIENTED_EDGE('',*,*,#595,.F.);
#945=ORIENTED_EDGE('',*,*,#663,.T.);
#946=ORIENTED_EDGE('',*,*,#655,.F.);
#947=ORIENTED_EDGE('',*,*,#659,.F.);
#948=ORIENTED_EDGE('',*,*,#660,.T.);
#949=ORIENTED_EDGE('',*,*,#658,.T.);
#950=ORIENTED_EDGE('',*,*,#665,.T.);
#951=ORIENTED_EDGE('',*,*,#648,.T.);
#952=ORIENTED_EDGE('',*,*,#662,.F.);
#953=ORIENTED_EDGE('',*,*,#649,.T.);
#954=ORIENTED_EDGE('',*,*,#645,.F.);
#955=ORIENTED_EDGE('',*,*,#650,.F.);
#956=ORIENTED_EDGE('',*,*,#664,.F.);
#957=ORIENTED_EDGE('',*,*,#667,.T.);
#958=ORIENTED_EDGE('',*,*,#641,.T.);
#959=ORIENTED_EDGE('',*,*,#640,.F.);
#960=ORIENTED_EDGE('',*,*,#653,.F.);
#961=ORIENTED_EDGE('',*,*,#638,.T.);
#962=ORIENTED_EDGE('',*,*,#643,.F.);
#963=ORIENTED_EDGE('',*,*,#668,.F.);
#964=ORIENTED_EDGE('',*,*,#651,.T.);
#965=ORIENTED_EDGE('',*,*,#669,.F.);
#966=ORIENTED_EDGE('',*,*,#558,.F.);
#967=ORIENTED_EDGE('',*,*,#670,.F.);
#968=ORIENTED_EDGE('',*,*,#668,.T.);
#969=ORIENTED_EDGE('',*,*,#670,.T.);
#970=ORIENTED_EDGE('',*,*,#557,.F.);
#971=ORIENTED_EDGE('',*,*,#671,.F.);
#972=ORIENTED_EDGE('',*,*,#652,.T.);
#973=ORIENTED_EDGE('',*,*,#669,.T.);
#974=ORIENTED_EDGE('',*,*,#642,.F.);
#975=ORIENTED_EDGE('',*,*,#672,.F.);
#976=ORIENTED_EDGE('',*,*,#555,.F.);
#977=ORIENTED_EDGE('',*,*,#671,.T.);
#978=ORIENTED_EDGE('',*,*,#556,.F.);
#979=ORIENTED_EDGE('',*,*,#672,.T.);
#980=ORIENTED_EDGE('',*,*,#667,.F.);
#981=PLANE('',#1099);
#982=PLANE('',#1101);
#983=PLANE('',#1102);
#984=PLANE('',#1108);
#985=PLANE('',#1116);
#986=PLANE('',#1128);
#987=PLANE('',#1133);
#988=PLANE('',#1137);
#989=PLANE('',#1145);
#990=PLANE('',#1146);
#991=PLANE('',#1147);
#992=PLANE('',#1148);
#993=PLANE('',#1149);
#994=PLANE('',#1150);
#995=PLANE('',#1151);
#996=PLANE('',#1152);
#997=PLANE('',#1153);
#998=PLANE('',#1154);
#999=PLANE('',#1155);
#1000=PLANE('',#1156);
#1001=PLANE('',#1157);
#1002=PLANE('',#1159);
#1003=PLANE('',#1160);
#1004=PLANE('',#1161);
#1005=PLANE('',#1163);
#1006=PLANE('',#1164);
#1007=PLANE('',#1165);
#1008=PLANE('',#1166);
#1009=PLANE('',#1167);
#1010=PLANE('',#1168);
#1011=PLANE('',#1169);
#1012=PLANE('',#1170);
#1013=PLANE('',#1171);
#1014=PLANE('',#1174);
#1015=PLANE('',#1195);
#1016=PLANE('',#1202);
#1017=PLANE('',#1203);
#1018=PLANE('',#1204);
#1019=PLANE('',#1205);
#1020=PLANE('',#1206);
#1021=ADVANCED_FACE('',(#45),#981,.T.);
#1022=ADVANCED_FACE('',(#46),#982,.T.);
#1023=ADVANCED_FACE('',(#47),#983,.T.);
#1024=ADVANCED_FACE('',(#48),#29,.F.);
#1025=ADVANCED_FACE('',(#49),#984,.T.);
#1026=ADVANCED_FACE('',(#50),#30,.T.);
#1027=ADVANCED_FACE('',(#51),#31,.T.);
#1028=ADVANCED_FACE('',(#52,#23),#985,.T.);
#1029=ADVANCED_FACE('',(#53),#32,.T.);
#1030=ADVANCED_FACE('',(#54),#33,.T.);
#1031=ADVANCED_FACE('',(#55),#986,.T.);
#1032=ADVANCED_FACE('',(#56),#34,.F.);
#1033=ADVANCED_FACE('',(#57),#987,.F.);
#1034=ADVANCED_FACE('',(#58),#35,.F.);
#1035=ADVANCED_FACE('',(#59,#24),#988,.F.);
#1036=ADVANCED_FACE('',(#60),#36,.F.);
#1037=ADVANCED_FACE('',(#61),#989,.F.);
#1038=ADVANCED_FACE('',(#62),#990,.F.);
#1039=ADVANCED_FACE('',(#63),#991,.T.);
#1040=ADVANCED_FACE('',(#64),#992,.T.);
#1041=ADVANCED_FACE('',(#65),#993,.T.);
#1042=ADVANCED_FACE('',(#66),#994,.T.);
#1043=ADVANCED_FACE('',(#67),#995,.T.);
#1044=ADVANCED_FACE('',(#68),#996,.T.);
#1045=ADVANCED_FACE('',(#69),#997,.T.);
#1046=ADVANCED_FACE('',(#70),#998,.T.);
#1047=ADVANCED_FACE('',(#71),#999,.T.);
#1048=ADVANCED_FACE('',(#72),#1000,.T.);
#1049=ADVANCED_FACE('',(#73),#1001,.T.);
#1050=ADVANCED_FACE('',(#74),#37,.F.);
#1051=ADVANCED_FACE('',(#75),#1002,.T.);
#1052=ADVANCED_FACE('',(#76),#1003,.T.);
#1053=ADVANCED_FACE('',(#77),#1004,.T.);
#1054=ADVANCED_FACE('',(#78),#38,.F.);
#1055=ADVANCED_FACE('',(#79),#1005,.F.);
#1056=ADVANCED_FACE('',(#80),#1006,.F.);
#1057=ADVANCED_FACE('',(#81),#1007,.F.);
#1058=ADVANCED_FACE('',(#82),#1008,.F.);
#1059=ADVANCED_FACE('',(#83),#1009,.F.);
#1060=ADVANCED_FACE('',(#84),#1010,.F.);
#1061=ADVANCED_FACE('',(#85),#1011,.F.);
#1062=ADVANCED_FACE('',(#86),#1012,.F.);
#1063=ADVANCED_FACE('',(#87),#1013,.F.);
#1064=ADVANCED_FACE('',(#88),#1014,.F.);
#1065=ADVANCED_FACE('',(#89),#17,.F.);
#1066=ADVANCED_FACE('',(#90),#15,.T.);
#1067=ADVANCED_FACE('',(#91),#18,.T.);
#1068=ADVANCED_FACE('',(#92),#19,.F.);
#1069=ADVANCED_FACE('',(#93),#16,.T.);
#1070=ADVANCED_FACE('',(#94),#20,.T.);
#1071=ADVANCED_FACE('',(#95),#1015,.F.);
#1072=ADVANCED_FACE('',(#96),#39,.T.);
#1073=ADVANCED_FACE('',(#97),#40,.T.);
#1074=ADVANCED_FACE('',(#98),#1016,.F.);
#1075=ADVANCED_FACE('',(#99),#1017,.F.);
#1076=ADVANCED_FACE('',(#100),#1018,.F.);
#1077=ADVANCED_FACE('',(#101),#1019,.T.);
#1078=ADVANCED_FACE('',(#102),#1020,.T.);
#1079=ADVANCED_FACE('',(#103),#41,.F.);
#1080=ADVANCED_FACE('',(#104),#42,.F.);
#1081=ADVANCED_FACE('',(#105),#43,.T.);
#1082=ADVANCED_FACE('',(#106),#21,.T.);
#1083=ADVANCED_FACE('',(#107),#22,.T.);
#1084=ADVANCED_FACE('',(#108),#44,.T.);
#1085=CLOSED_SHELL('',(#1021,#1022,#1023,#1024,#1025,#1026,#1027,#1028,
#1029,#1030,#1031,#1032,#1033,#1034,#1035,#1036,#1037,#1038,#1039,#1040,
#1041,#1042,#1043,#1044,#1045,#1046,#1047,#1048,#1049,#1050,#1051,#1052,
#1053,#1054,#1055,#1056,#1057,#1058,#1059,#1060,#1061,#1062,#1063,#1064,
#1065,#1066,#1067,#1068,#1069,#1070,#1071,#1072,#1073,#1074,#1075,#1076,
#1077,#1078,#1079,#1080,#1081,#1082,#1083,#1084));
#1086=DERIVED_UNIT_ELEMENT(#1088,1.);
#1087=DERIVED_UNIT_ELEMENT(#1873,-3.);
#1088=(
MASS_UNIT()
NAMED_UNIT(*)
SI_UNIT(.KILO.,.GRAM.)
);
#1089=DERIVED_UNIT((#1086,#1087));
#1090=MEASURE_REPRESENTATION_ITEM('density measure',
POSITIVE_RATIO_MEASURE(7850.),#1089);
#1091=PROPERTY_DEFINITION_REPRESENTATION(#1096,#1093);
#1092=PROPERTY_DEFINITION_REPRESENTATION(#1097,#1094);
#1093=REPRESENTATION('material name',(#1095),#1870);
#1094=REPRESENTATION('density',(#1090),#1870);
#1095=DESCRIPTIVE_REPRESENTATION_ITEM('Steel','Steel');
#1096=PROPERTY_DEFINITION('material property','material name',#1880);
#1097=PROPERTY_DEFINITION('material property','density of part',#1880);
#1098=AXIS2_PLACEMENT_3D('',#1555,#1217,#1218);
#1099=AXIS2_PLACEMENT_3D('',#1556,#1219,#1220);
#1100=AXIS2_PLACEMENT_3D('',#1559,#1221,#1222);
#1101=AXIS2_PLACEMENT_3D('',#1563,#1225,#1226);
#1102=AXIS2_PLACEMENT_3D('',#1569,#1230,#1231);
#1103=AXIS2_PLACEMENT_3D('',#1575,#1234,#1235);
#1104=AXIS2_PLACEMENT_3D('',#1576,#1236,#1237);
#1105=AXIS2_PLACEMENT_3D('',#1579,#1238,#1239);
#1106=AXIS2_PLACEMENT_3D('',#1583,#1241,#1242);
#1107=AXIS2_PLACEMENT_3D('',#1587,#1244,#1245);
#1108=AXIS2_PLACEMENT_3D('',#1589,#1247,#1248);
#1109=AXIS2_PLACEMENT_3D('',#1595,#1252,#1253);
#1110=AXIS2_PLACEMENT_3D('',#1597,#1254,#1255);
#1111=AXIS2_PLACEMENT_3D('',#1601,#1257,#1258);
#1112=AXIS2_PLACEMENT_3D('',#1604,#1260,#1261);
#1113=AXIS2_PLACEMENT_3D('',#1605,#1262,#1263);
#1114=AXIS2_PLACEMENT_3D('',#1607,#1264,#1265);
#1115=AXIS2_PLACEMENT_3D('',#1611,#1267,#1268);
#1116=AXIS2_PLACEMENT_3D('',#1613,#1270,#1271);
#1117=AXIS2_PLACEMENT_3D('',#1627,#1278,#1279);
#1118=AXIS2_PLACEMENT_3D('',#1630,#1281,#1282);
#1119=AXIS2_PLACEMENT_3D('',#1633,#1283,#1284);
#1120=AXIS2_PLACEMENT_3D('',#1637,#1286,#1287);
#1121=AXIS2_PLACEMENT_3D('',#1639,#1289,#1290);
#1122=AXIS2_PLACEMENT_3D('',#1640,#1291,#1292);
#1123=AXIS2_PLACEMENT_3D('',#1643,#1294,#1295);
#1124=AXIS2_PLACEMENT_3D('',#1644,#1296,#1297);
#1125=AXIS2_PLACEMENT_3D('',#1647,#1298,#1299);
#1126=AXIS2_PLACEMENT_3D('',#1651,#1301,#1302);
#1127=AXIS2_PLACEMENT_3D('',#1655,#1304,#1305);
#1128=AXIS2_PLACEMENT_3D('',#1657,#1307,#1308);
#1129=AXIS2_PLACEMENT_3D('',#1663,#1312,#1313);
#1130=AXIS2_PLACEMENT_3D('',#1665,#1314,#1315);
#1131=AXIS2_PLACEMENT_3D('',#1669,#1317,#1318);
#1132=AXIS2_PLACEMENT_3D('',#1672,#1320,#1321);
#1133=AXIS2_PLACEMENT_3D('',#1673,#1322,#1323);
#1134=AXIS2_PLACEMENT_3D('',#1683,#1329,#1330);
#1135=AXIS2_PLACEMENT_3D('',#1685,#1331,#1332);
#1136=AXIS2_PLACEMENT_3D('',#1688,#1334,#1335);
#1137=AXIS2_PLACEMENT_3D('',#1689,#1336,#1337);
#1138=AXIS2_PLACEMENT_3D('',#1695,#1340,#1341);
#1139=AXIS2_PLACEMENT_3D('',#1699,#1343,#1344);
#1140=AXIS2_PLACEMENT_3D('',#1711,#1350,#1351);
#1141=AXIS2_PLACEMENT_3D('',#1714,#1353,#1354);
#1142=AXIS2_PLACEMENT_3D('',#1715,#1355,#1356);
#1143=AXIS2_PLACEMENT_3D('',#1717,#1357,#1358);
#1144=AXIS2_PLACEMENT_3D('',#1720,#1360,#1361);
#1145=AXIS2_PLACEMENT_3D('',#1721,#1362,#1363);
#1146=AXIS2_PLACEMENT_3D('',#1728,#1368,#1369);
#1147=AXIS2_PLACEMENT_3D('',#1734,#1373,#1374);
#1148=AXIS2_PLACEMENT_3D('',#1736,#1376,#1377);
#1149=AXIS2_PLACEMENT_3D('',#1739,#1380,#1381);
#1150=AXIS2_PLACEMENT_3D('',#1741,#1383,#1384);
#1151=AXIS2_PLACEMENT_3D('',#1743,#1386,#1387);
#1152=AXIS2_PLACEMENT_3D('',#1746,#1390,#1391);
#1153=AXIS2_PLACEMENT_3D('',#1747,#1392,#1393);
#1154=AXIS2_PLACEMENT_3D('',#1751,#1396,#1397);
#1155=AXIS2_PLACEMENT_3D('',#1756,#1401,#1402);
#1156=AXIS2_PLACEMENT_3D('',#1757,#1403,#1404);
#1157=AXIS2_PLACEMENT_3D('',#1760,#1407,#1408);
#1158=AXIS2_PLACEMENT_3D('',#1762,#1410,#1411);
#1159=AXIS2_PLACEMENT_3D('',#1764,#1413,#1414);
#1160=AXIS2_PLACEMENT_3D('',#1766,#1416,#1417);
#1161=AXIS2_PLACEMENT_3D('',#1769,#1420,#1421);
#1162=AXIS2_PLACEMENT_3D('',#1771,#1423,#1424);
#1163=AXIS2_PLACEMENT_3D('',#1772,#1425,#1426);
#1164=AXIS2_PLACEMENT_3D('',#1774,#1428,#1429);
#1165=AXIS2_PLACEMENT_3D('',#1776,#1431,#1432);
#1166=AXIS2_PLACEMENT_3D('',#1778,#1434,#1435);
#1167=AXIS2_PLACEMENT_3D('',#1779,#1436,#1437);
#1168=AXIS2_PLACEMENT_3D('',#1782,#1440,#1441);
#1169=AXIS2_PLACEMENT_3D('',#1784,#1443,#1444);
#1170=AXIS2_PLACEMENT_3D('',#1785,#1445,#1446);
#1171=AXIS2_PLACEMENT_3D('',#1786,#1447,#1448);
#1172=AXIS2_PLACEMENT_3D('',#1789,#1449,#1450);
#1173=AXIS2_PLACEMENT_3D('',#1793,#1452,#1453);
#1174=AXIS2_PLACEMENT_3D('',#1795,#1455,#1456);
#1175=AXIS2_PLACEMENT_3D('',#1798,#1457,#1458);
#1176=AXIS2_PLACEMENT_3D('',#1802,#1460,#1461);
#1177=AXIS2_PLACEMENT_3D('',#1804,#1463,#1464);
#1178=AXIS2_PLACEMENT_3D('',#1806,#1465,#1466);
#1179=AXIS2_PLACEMENT_3D('',#1808,#1467,#1468);
#1180=AXIS2_PLACEMENT_3D('',#1809,#1469,#1470);
#1181=AXIS2_PLACEMENT_3D('',#1810,#1471,#1472);
#1182=AXIS2_PLACEMENT_3D('',#1813,#1473,#1474);
#1183=AXIS2_PLACEMENT_3D('',#1820,#1479,#1480);
#1184=AXIS2_PLACEMENT_3D('',#1821,#1481,#1482);
#1185=AXIS2_PLACEMENT_3D('',#1822,#1483,#1484);
#1186=AXIS2_PLACEMENT_3D('',#1823,#1485,#1486);
#1187=AXIS2_PLACEMENT_3D('',#1825,#1487,#1488);
#1188=AXIS2_PLACEMENT_3D('',#1827,#1489,#1490);
#1189=AXIS2_PLACEMENT_3D('',#1828,#1491,#1492);
#1190=AXIS2_PLACEMENT_3D('',#1829,#1493,#1494);
#1191=AXIS2_PLACEMENT_3D('',#1832,#1495,#1496);
#1192=AXIS2_PLACEMENT_3D('',#1839,#1501,#1502);
#1193=AXIS2_PLACEMENT_3D('',#1840,#1503,#1504);
#1194=AXIS2_PLACEMENT_3D('',#1841,#1505,#1506);
#1195=AXIS2_PLACEMENT_3D('',#1842,#1507,#1508);
#1196=AXIS2_PLACEMENT_3D('',#1844,#1510,#1511);
#1197=AXIS2_PLACEMENT_3D('',#1845,#1512,#1513);
#1198=AXIS2_PLACEMENT_3D('',#1846,#1514,#1515);
#1199=AXIS2_PLACEMENT_3D('',#1847,#1516,#1517);
#1200=AXIS2_PLACEMENT_3D('',#1848,#1518,#1519);
#1201=AXIS2_PLACEMENT_3D('',#1849,#1520,#1521);
#1202=AXIS2_PLACEMENT_3D('',#1851,#1523,#1524);
#1203=AXIS2_PLACEMENT_3D('',#1852,#1525,#1526);
#1204=AXIS2_PLACEMENT_3D('',#1853,#1527,#1528);
#1205=AXIS2_PLACEMENT_3D('',#1854,#1529,#1530);
#1206=AXIS2_PLACEMENT_3D('',#1855,#1531,#1532);
#1207=AXIS2_PLACEMENT_3D('',#1856,#1533,#1534);
#1208=AXIS2_PLACEMENT_3D('',#1858,#1536,#1537);
#1209=AXIS2_PLACEMENT_3D('',#1860,#1539,#1540);
#1210=AXIS2_PLACEMENT_3D('',#1861,#1541,#1542);
#1211=AXIS2_PLACEMENT_3D('',#1862,#1543,#1544);
#1212=AXIS2_PLACEMENT_3D('',#1863,#1545,#1546);
#1213=AXIS2_PLACEMENT_3D('',#1864,#1547,#1548);
#1214=AXIS2_PLACEMENT_3D('',#1865,#1549,#1550);
#1215=AXIS2_PLACEMENT_3D('',#1866,#1551,#1552);
#1216=AXIS2_PLACEMENT_3D('',#1867,#1553,#1554);
#1217=DIRECTION('axis',(0.,0.,1.));
#1218=DIRECTION('refdir',(1.,0.,0.));
#1219=DIRECTION('center_axis',(0.,-1.,0.));
#1220=DIRECTION('ref_axis',(0.,0.,-1.));
#1221=DIRECTION('center_axis',(0.,-1.,0.));
#1222=DIRECTION('ref_axis',(0.,0.,1.));
#1223=DIRECTION('',(0.,0.,-1.));
#1224=DIRECTION('',(1.,0.,-5.335640612626E-16));
#1225=DIRECTION('center_axis',(0.,-1.,0.));
#1226=DIRECTION('ref_axis',(0.,0.,-1.));
#1227=DIRECTION('',(1.,0.,0.));
#1228=DIRECTION('',(-5.507758051742E-16,0.,-1.));
#1229=DIRECTION('',(0.,0.,-1.));
#1230=DIRECTION('center_axis',(0.,-1.,0.));
#1231=DIRECTION('ref_axis',(0.,0.,-1.));
#1232=DIRECTION('',(1.,0.,5.335640612626E-16));
#1233=DIRECTION('',(0.,0.,-1.));
#1234=DIRECTION('center_axis',(0.,-1.,0.));
#1235=DIRECTION('ref_axis',(0.,0.,-1.));
#1236=DIRECTION('center_axis',(0.,-1.,0.));
#1237=DIRECTION('ref_axis',(-0.0629940788350815,0.,0.998013900720686));
#1238=DIRECTION('center_axis',(0.,-1.,0.));
#1239=DIRECTION('ref_axis',(0.,0.,1.));
#1240=DIRECTION('',(0.,1.,0.));
#1241=DIRECTION('center_axis',(0.,-1.,0.));
#1242=DIRECTION('ref_axis',(7.265553174639E-16,0.,1.));
#1243=DIRECTION('',(0.,-1.,0.));
#1244=DIRECTION('center_axis',(0.,-1.,0.));
#1245=DIRECTION('ref_axis',(1.,0.,0.));
#1246=DIRECTION('',(0.,-1.,0.));
#1247=DIRECTION('center_axis',(0.125737932681055,0.,-0.992063492063434));
#1248=DIRECTION('ref_axis',(-0.992063492063434,0.,-0.125737932681055));
#1249=DIRECTION('',(0.992063492063434,0.,0.125737932681055));
#1250=DIRECTION('',(0.,-1.,0.));
#1251=DIRECTION('',(0.992063492063434,0.,0.125737932681055));
#1252=DIRECTION('center_axis',(0.,-1.,0.));
#1253=DIRECTION('ref_axis',(-0.0629940788350113,0.,0.998013900720691));
#1254=DIRECTION('center_axis',(0.,-1.,0.));
#1255=DIRECTION('ref_axis',(1.084066664152E-15,0.,1.));
#1256=DIRECTION('',(0.,1.,0.));
#1257=DIRECTION('center_axis',(0.,-1.,0.));
#1258=DIRECTION('ref_axis',(-1.626099996229E-15,0.,1.));
#1259=DIRECTION('',(0.,-1.,0.));
#1260=DIRECTION('center_axis',(0.,-1.,0.));
#1261=DIRECTION('ref_axis',(0.,0.,-1.));
#1262=DIRECTION('center_axis',(0.,-1.,0.));
#1263=DIRECTION('ref_axis',(0.,0.,-1.));
#1264=DIRECTION('center_axis',(0.707106781185277,0.707106781187818,9.48185605682623E-12));
#1265=DIRECTION('ref_axis',(0.707106781187818,-0.707106781185277,-3.87237518596533E-11));
#1266=DIRECTION('',(0.,-1.,0.));
#1267=DIRECTION('center_axis',(0.,-1.,0.));
#1268=DIRECTION('ref_axis',(0.,0.,-1.));
#1269=DIRECTION('',(0.,-1.,0.));
#1270=DIRECTION('center_axis',(-3.627943232467E-32,0.,-1.));
#1271=DIRECTION('ref_axis',(-1.,0.,3.627943232467E-32));
#1272=DIRECTION('',(-9.926773232792E-17,-1.,0.));
#1273=DIRECTION('',(-0.707106781186548,-0.707106781186548,0.));
#1274=DIRECTION('',(0.,-1.,0.));
#1275=DIRECTION('',(1.,0.,-3.627943232467E-32));
#1276=DIRECTION('',(-0.707106781186548,0.707106781186548,0.));
#1277=DIRECTION('',(-9.926773232792E-17,1.,0.));
#1278=DIRECTION('center_axis',(0.,0.,1.));
#1279=DIRECTION('ref_axis',(1.,0.,0.));
#1280=DIRECTION('',(-1.,0.,0.));
#1281=DIRECTION('center_axis',(0.,0.,1.));
#1282=DIRECTION('ref_axis',(-1.,0.,0.));
#1283=DIRECTION('center_axis',(3.627943232467E-32,0.,1.));
#1284=DIRECTION('ref_axis',(-1.,0.,3.627943232467E-32));
#1285=DIRECTION('',(6.982966722219E-15,-1.,-2.533380686241E-46));
#1286=DIRECTION('center_axis',(3.627943232467E-32,0.,1.));
#1287=DIRECTION('ref_axis',(-1.,0.,3.627943232467E-32));
#1288=DIRECTION('',(-6.982966722219E-15,1.,2.533380686241E-46));
#1289=DIRECTION('center_axis',(0.,-1.,0.));
#1290=DIRECTION('ref_axis',(0.,0.,-1.));
#1291=DIRECTION('center_axis',(-0.707106781186547,0.707106781186548,1.46197418587782E-14));
#1292=DIRECTION('ref_axis',(0.707106781186548,0.707106781186546,5.57440579955493E-11));
#1293=DIRECTION('',(0.,-1.,0.));
#1294=DIRECTION('center_axis',(0.,-1.,0.));
#1295=DIRECTION('ref_axis',(0.,0.,1.));
#1296=DIRECTION('center_axis',(0.,-1.,0.));
#1297=DIRECTION('ref_axis',(0.0629940788350113,0.,0.998013900720691));
#1298=DIRECTION('center_axis',(0.,-1.,0.));
#1299=DIRECTION('ref_axis',(0.,0.,1.));
#1300=DIRECTION('',(0.,-1.,0.));
#1301=DIRECTION('center_axis',(0.,-1.,0.));
#1302=DIRECTION('ref_axis',(1.084066664152E-15,0.,1.));
#1303=DIRECTION('',(0.,-1.,0.));
#1304=DIRECTION('center_axis',(0.,-1.,0.));
#1305=DIRECTION('ref_axis',(0.,0.,1.));
#1306=DIRECTION('',(0.,-1.,0.));
#1307=DIRECTION('center_axis',(-0.125737932681055,0.,-0.992063492063434));
#1308=DIRECTION('ref_axis',(-0.992063492063434,0.,0.125737932681055));
#1309=DIRECTION('',(0.992063492063434,0.,-0.125737932681055));
#1310=DIRECTION('',(0.,-1.,0.));
#1311=DIRECTION('',(0.992063492063434,0.,-0.125737932681055));
#1312=DIRECTION('center_axis',(0.,-1.,0.));
#1313=DIRECTION('ref_axis',(0.062994078835029,0.,0.998013900720689));
#1314=DIRECTION('center_axis',(0.,-1.,0.));
#1315=DIRECTION('ref_axis',(0.,0.,1.));
#1316=DIRECTION('',(0.,-1.,0.));
#1317=DIRECTION('center_axis',(0.,-1.,0.));
#1318=DIRECTION('ref_axis',(0.,0.,1.));
#1319=DIRECTION('',(0.,-1.,0.));
#1320=DIRECTION('center_axis',(0.,-1.,0.));
#1321=DIRECTION('ref_axis',(1.,0.,0.));
#1322=DIRECTION('center_axis',(-1.,0.,5.507758051742E-16));
#1323=DIRECTION('ref_axis',(5.507758051742E-16,0.,1.));
#1324=DIRECTION('',(-5.507758051742E-16,0.,-1.));
#1325=DIRECTION('',(0.,-1.,0.));
#1326=DIRECTION('',(5.507758051742E-16,5.507758051742E-16,1.));
#1327=DIRECTION('',(0.,-1.,0.));
#1328=DIRECTION('',(-5.507758051742E-16,0.,-1.));
#1329=DIRECTION('center_axis',(0.,-1.,0.));
#1330=DIRECTION('ref_axis',(0.,0.,-1.));
#1331=DIRECTION('center_axis',(-0.707106781187336,0.707106781185759,-1.57686581547441E-12));
#1332=DIRECTION('ref_axis',(0.707106781185759,0.707106781187336,-2.78850394041827E-12));
#1333=DIRECTION('',(0.,-1.,0.));
#1334=DIRECTION('center_axis',(0.,-1.,0.));
#1335=DIRECTION('ref_axis',(1.,0.,0.));
#1336=DIRECTION('center_axis',(-3.627943232467E-32,0.,-1.));
#1337=DIRECTION('ref_axis',(-1.,0.,3.627943232467E-32));
#1338=DIRECTION('',(-0.707106781186548,-0.707106781186548,2.56534326143536E-32));
#1339=DIRECTION('',(-9.926773232792E-17,-1.,3.601376977014E-48));
#1340=DIRECTION('center_axis',(3.627943232467E-32,0.,1.));
#1341=DIRECTION('ref_axis',(-1.,0.,3.627943232467E-32));
#1342=DIRECTION('',(-1.,0.,3.627943232467E-32));
#1343=DIRECTION('center_axis',(3.627943232467E-32,0.,1.));
#1344=DIRECTION('ref_axis',(-1.,0.,3.627943232467E-32));
#1345=DIRECTION('',(-9.926773232792E-17,1.,3.601376977014E-48));
#1346=DIRECTION('',(-0.707106781186548,0.707106781186548,2.56534326143536E-32));
#1347=DIRECTION('',(0.,-1.,0.));
#1348=DIRECTION('',(1.,0.,-3.627943232467E-32));
#1349=DIRECTION('',(5.768260121757E-16,1.,-1.70638308795E-47));
#1350=DIRECTION('center_axis',(-3.627943232467E-32,0.,-1.));
#1351=DIRECTION('ref_axis',(-1.,0.,3.627943232467E-32));
#1352=DIRECTION('',(3.460956073054E-16,-1.,-1.70638308795E-47));
#1353=DIRECTION('center_axis',(-3.627943232467E-32,0.,-1.));
#1354=DIRECTION('ref_axis',(-1.,0.,3.627943232467E-32));
#1355=DIRECTION('center_axis',(0.,-1.,0.));
#1356=DIRECTION('ref_axis',(0.,0.,-1.));
#1357=DIRECTION('center_axis',(0.707106781186547,0.707106781186548,1.75012854103511E-15));
#1358=DIRECTION('ref_axis',(0.707106781186548,-0.707106781186547,-2.54352306297097E-12));
#1359=DIRECTION('',(0.,-1.,0.));
#1360=DIRECTION('center_axis',(0.,-1.,0.));
#1361=DIRECTION('ref_axis',(1.,0.,0.));
#1362=DIRECTION('center_axis',(1.,0.,5.507758051742E-16));
#1363=DIRECTION('ref_axis',(5.507758051742E-16,0.,-1.));
#1364=DIRECTION('',(0.,1.,0.));
#1365=DIRECTION('',(-5.507758051742E-16,0.,1.));
#1366=DIRECTION('',(-5.507758051742E-16,0.,1.));
#1367=DIRECTION('',(5.507758051742E-16,-5.507758051742E-16,-1.));
#1368=DIRECTION('center_axis',(0.,1.,0.));
#1369=DIRECTION('ref_axis',(0.,0.,1.));
#1370=DIRECTION('',(-5.507758051742E-16,0.,1.));
#1371=DIRECTION('',(1.,0.,0.));
#1372=DIRECTION('',(0.,0.,1.));
#1373=DIRECTION('center_axis',(0.,1.,0.));
#1374=DIRECTION('ref_axis',(0.,0.,1.));
#1375=DIRECTION('',(1.,0.,-5.335640612626E-16));
#1376=DIRECTION('center_axis',(0.,1.,0.));
#1377=DIRECTION('ref_axis',(0.,0.,1.));
#1378=DIRECTION('',(0.,0.,1.));
#1379=DIRECTION('',(-1.,0.,5.335640612626E-16));
#1380=DIRECTION('center_axis',(0.,1.,0.));
#1381=DIRECTION('ref_axis',(0.,0.,1.));
#1382=DIRECTION('',(0.,0.,-1.));
#1383=DIRECTION('center_axis',(0.,1.,0.));
#1384=DIRECTION('ref_axis',(0.,0.,1.));
#1385=DIRECTION('',(-1.,0.,-5.335640612626E-16));
#1386=DIRECTION('center_axis',(0.,1.,0.));
#1387=DIRECTION('ref_axis',(0.,0.,1.));
#1388=DIRECTION('',(-5.507758051742E-16,0.,1.));
#1389=DIRECTION('',(1.,0.,5.335640612626E-16));
#1390=DIRECTION('center_axis',(0.,1.,0.));
#1391=DIRECTION('ref_axis',(0.,0.,1.));
#1392=DIRECTION('center_axis',(1.,0.,5.507758051742E-16));
#1393=DIRECTION('ref_axis',(5.507758051742E-16,0.,-1.));
#1394=DIRECTION('',(0.,0.,1.));
#1395=DIRECTION('',(0.,1.,0.));
#1396=DIRECTION('center_axis',(-1.,0.,5.507758051742E-16));
#1397=DIRECTION('ref_axis',(5.507758051742E-16,0.,1.));
#1398=DIRECTION('',(0.,0.,1.));
#1399=DIRECTION('',(-5.507758051742E-16,0.,-1.));
#1400=DIRECTION('',(0.,-1.,0.));
#1401=DIRECTION('center_axis',(0.,1.,0.));
#1402=DIRECTION('ref_axis',(0.,0.,1.));
#1403=DIRECTION('center_axis',(0.707106781186548,-0.707106781186548,0.));
#1404=DIRECTION('ref_axis',(0.707106781186548,0.707106781186548,0.));
#1405=DIRECTION('',(0.707106781186548,0.707106781186548,0.));
#1406=DIRECTION('',(0.,0.,-1.));
#1407=DIRECTION('center_axis',(1.,-9.926773232792E-17,0.));
#1408=DIRECTION('ref_axis',(9.926773232792E-17,1.,0.));
#1409=DIRECTION('',(0.,0.,-1.));
#1410=DIRECTION('center_axis',(0.,0.,-1.));
#1411=DIRECTION('ref_axis',(-1.,0.,0.));
#1412=DIRECTION('',(0.,0.,-1.));
#1413=DIRECTION('center_axis',(0.,-1.,0.));
#1414=DIRECTION('ref_axis',(0.,0.,-1.));
#1415=DIRECTION('',(0.,0.,-1.));
#1416=DIRECTION('center_axis',(-0.707106781186548,-0.707106781186548,0.));
#1417=DIRECTION('ref_axis',(0.707106781186548,-0.707106781186548,0.));
#1418=DIRECTION('',(0.707106781186548,-0.707106781186548,0.));
#1419=DIRECTION('',(0.,0.,-1.));
#1420=DIRECTION('center_axis',(-1.,-9.926773232792E-17,0.));
#1421=DIRECTION('ref_axis',(9.926773232792E-17,-1.,0.));
#1422=DIRECTION('',(0.,0.,-1.));
#1423=DIRECTION('center_axis',(0.,0.,-1.));
#1424=DIRECTION('ref_axis',(-1.,0.,0.));
#1425=DIRECTION('center_axis',(0.,0.,-1.));
#1426=DIRECTION('ref_axis',(-1.,0.,0.));
#1427=DIRECTION('',(-1.,0.,0.));
#1428=DIRECTION('center_axis',(0.,1.,0.));
#1429=DIRECTION('ref_axis',(0.,0.,1.));
#1430=DIRECTION('',(0.,0.,1.));
#1431=DIRECTION('center_axis',(1.,0.,0.));
#1432=DIRECTION('ref_axis',(0.,0.,-1.));
#1433=DIRECTION('',(0.,0.,1.));
#1434=DIRECTION('center_axis',(0.,1.,0.));
#1435=DIRECTION('ref_axis',(0.,0.,1.));
#1436=DIRECTION('center_axis',(-1.,0.,0.));
#1437=DIRECTION('ref_axis',(0.,0.,1.));
#1438=DIRECTION('',(0.,0.,1.));
#1439=DIRECTION('',(0.,0.,1.));
#1440=DIRECTION('center_axis',(0.,1.,0.));
#1441=DIRECTION('ref_axis',(0.,0.,1.));
#1442=DIRECTION('',(-1.,0.,0.));
#1443=DIRECTION('center_axis',(0.,0.,-1.));
#1444=DIRECTION('ref_axis',(-1.,0.,0.));
#1445=DIRECTION('center_axis',(0.,1.,0.));
#1446=DIRECTION('ref_axis',(0.,0.,1.));
#1447=DIRECTION('center_axis',(0.,0.,-1.));
#1448=DIRECTION('ref_axis',(-1.,0.,0.));
#1449=DIRECTION('center_axis',(0.,0.,-1.));
#1450=DIRECTION('ref_axis',(-1.,0.,0.));
#1451=DIRECTION('',(-6.982966722219E-15,1.,0.));
#1452=DIRECTION('center_axis',(0.,0.,1.));
#1453=DIRECTION('ref_axis',(-1.,0.,0.));
#1454=DIRECTION('',(-6.982966722219E-15,1.,0.));
#1455=DIRECTION('center_axis',(0.,0.,1.));
#1456=DIRECTION('ref_axis',(1.,0.,0.));
#1457=DIRECTION('center_axis',(0.,0.,-1.));
#1458=DIRECTION('ref_axis',(-1.,0.,0.));
#1459=DIRECTION('',(-6.982966722219E-15,1.,0.));
#1460=DIRECTION('center_axis',(0.,0.,1.));
#1461=DIRECTION('ref_axis',(-1.,0.,0.));
#1462=DIRECTION('',(-6.982966722219E-15,1.,0.));
#1463=DIRECTION('center_axis',(0.,0.,-1.));
#1464=DIRECTION('ref_axis',(-1.,0.,0.));
#1465=DIRECTION('center_axis',(-6.982966722219E-15,1.,0.));
#1466=DIRECTION('ref_axis',(0.,0.,-1.));
#1467=DIRECTION('center_axis',(0.,0.,-1.));
#1468=DIRECTION('ref_axis',(-1.,0.,0.));
#1469=DIRECTION('center_axis',(0.,-1.,0.));
#1470=DIRECTION('ref_axis',(0.,0.,-1.));
#1471=DIRECTION('center_axis',(0.,0.,-1.));
#1472=DIRECTION('ref_axis',(-1.,0.,0.));
#1473=DIRECTION('center_axis',(0.,0.,-1.));
#1474=DIRECTION('ref_axis',(-1.,0.,0.));
#1475=DIRECTION('',(0.707106781186548,0.,-0.707106781186548));
#1476=DIRECTION('',(-0.707106781186548,0.,0.707106781186548));
#1477=DIRECTION('',(-0.707106781186548,0.,-0.707106781186548));
#1478=DIRECTION('',(-0.707106781186548,-4.93770312207784E-15,-0.707106781186548));
#1479=DIRECTION('center_axis',(0.,0.,-1.));
#1480=DIRECTION('ref_axis',(-1.,0.,0.));
#1481=DIRECTION('center_axis',(6.982966722219E-15,-1.,0.));
#1482=DIRECTION('ref_axis',(0.,0.,-1.));
#1483=DIRECTION('center_axis',(0.,1.,0.));
#1484=DIRECTION('ref_axis',(0.,0.,-1.));
#1485=DIRECTION('center_axis',(0.,0.,-1.));
#1486=DIRECTION('ref_axis',(-1.,0.,0.));
#1487=DIRECTION('center_axis',(0.,-1.,0.));
#1488=DIRECTION('ref_axis',(0.,0.,-1.));
#1489=DIRECTION('center_axis',(0.,0.,1.));
#1490=DIRECTION('ref_axis',(-1.,0.,0.));
#1491=DIRECTION('center_axis',(6.982966722219E-15,1.,0.));
#1492=DIRECTION('ref_axis',(0.,0.,-1.));
#1493=DIRECTION('center_axis',(0.,0.,-1.));
#1494=DIRECTION('ref_axis',(-1.,0.,0.));
#1495=DIRECTION('center_axis',(0.,0.,1.));
#1496=DIRECTION('ref_axis',(-1.,0.,0.));
#1497=DIRECTION('',(-0.707106781186548,4.93770312207784E-15,-0.707106781186548));
#1498=DIRECTION('',(-0.707106781186548,0.,-0.707106781186548));
#1499=DIRECTION('',(-0.707106781186548,0.,0.707106781186548));
#1500=DIRECTION('',(0.707106781186548,0.,-0.707106781186548));
#1501=DIRECTION('center_axis',(0.,0.,-1.));
#1502=DIRECTION('ref_axis',(-1.,0.,0.));
#1503=DIRECTION('center_axis',(-6.982966722219E-15,-1.,0.));
#1504=DIRECTION('ref_axis',(0.,0.,-1.));
#1505=DIRECTION('center_axis',(0.,1.,0.));
#1506=DIRECTION('ref_axis',(0.,0.,-1.));
#1507=DIRECTION('center_axis',(0.707106781186548,4.93770312207784E-15,-0.707106781186548));
#1508=DIRECTION('ref_axis',(-0.707106781186548,0.,-0.707106781186548));
#1509=DIRECTION('',(-6.982966722219E-15,1.,0.));
#1510=DIRECTION('center_axis',(-6.982966722219E-15,1.,0.));
#1511=DIRECTION('ref_axis',(-1.,-6.982966722219E-15,0.));
#1512=DIRECTION('center_axis',(6.982966722219E-15,-1.,0.));
#1513=DIRECTION('ref_axis',(1.,6.982966722219E-15,0.));
#1514=DIRECTION('center_axis',(6.982966722219E-15,-1.,0.));
#1515=DIRECTION('ref_axis',(1.,6.982966722219E-15,0.));
#1516=DIRECTION('center_axis',(-6.982966722219E-15,1.,0.));
#1517=DIRECTION('ref_axis',(-1.,-6.982966722219E-15,0.));
#1518=DIRECTION('center_axis',(6.982966722219E-15,-1.,0.));
#1519=DIRECTION('ref_axis',(-1.,-6.982966722219E-15,0.));
#1520=DIRECTION('center_axis',(6.982966722219E-15,-1.,0.));
#1521=DIRECTION('ref_axis',(-1.,-6.982966722219E-15,0.));
#1522=DIRECTION('',(-6.982966722219E-15,1.,0.));
#1523=DIRECTION('center_axis',(-0.707106781186548,-4.93770312207784E-15,
-0.707106781186548));
#1524=DIRECTION('ref_axis',(-0.707106781186548,0.,0.707106781186548));
#1525=DIRECTION('center_axis',(-6.982966722219E-15,1.,0.));
#1526=DIRECTION('ref_axis',(-1.,-6.982966722219E-15,0.));
#1527=DIRECTION('center_axis',(-6.982966722219E-15,1.,0.));
#1528=DIRECTION('ref_axis',(-1.,-6.982966722219E-15,0.));
#1529=DIRECTION('center_axis',(-6.982966722219E-15,1.,0.));
#1530=DIRECTION('ref_axis',(-1.,-6.982966722219E-15,0.));
#1531=DIRECTION('center_axis',(-6.982966722219E-15,1.,0.));
#1532=DIRECTION('ref_axis',(-1.,-6.982966722219E-15,0.));
#1533=DIRECTION('center_axis',(-6.982966722219E-15,1.,0.));
#1534=DIRECTION('ref_axis',(-1.,-6.982966722219E-15,0.));
#1535=DIRECTION('',(-6.982966722219E-15,1.,0.));
#1536=DIRECTION('center_axis',(-6.982966722219E-15,1.,0.));
#1537=DIRECTION('ref_axis',(-1.,-6.982966722219E-15,0.));
#1538=DIRECTION('',(-6.982966722219E-15,1.,0.));
#1539=DIRECTION('center_axis',(-6.982966722219E-15,1.,0.));
#1540=DIRECTION('ref_axis',(-1.,-6.982966722219E-15,0.));
#1541=DIRECTION('center_axis',(-6.463000676001E-15,1.,0.));
#1542=DIRECTION('ref_axis',(-1.,-6.463000676001E-15,0.));
#1543=DIRECTION('center_axis',(6.463000676E-15,-1.,-5.109186314993E-28));
#1544=DIRECTION('ref_axis',(1.,6.463000676E-15,-1.28436304081099E-44));
#1545=DIRECTION('center_axis',(-3.627943232467E-32,0.,-1.));
#1546=DIRECTION('ref_axis',(-1.,0.,0.));
#1547=DIRECTION('center_axis',(6.463000675999E-15,1.,1.103495964361E-30));
#1548=DIRECTION('ref_axis',(-1.,6.463000675999E-15,-2.774002248093E-47));
#1549=DIRECTION('center_axis',(-3.627943232467E-32,0.,-1.));
#1550=DIRECTION('ref_axis',(-1.,0.,0.));
#1551=DIRECTION('center_axis',(6.463000676E-15,-1.,0.));
#1552=DIRECTION('ref_axis',(1.,6.463000676E-15,0.));
#1553=DIRECTION('center_axis',(-6.982966722219E-15,1.,0.));
#1554=DIRECTION('ref_axis',(-1.,-6.982966722219E-15,0.));
#1555=CARTESIAN_POINT('',(0.,0.,0.));
#1556=CARTESIAN_POINT('Origin',(-10.3143807708,-6.293184507836,-0.620268185169));
#1557=CARTESIAN_POINT('',(-10.3143807708,-6.293184507836,-0.620268185169));
#1558=CARTESIAN_POINT('',(-9.920680770803,-6.293184507836,-1.302176588109));
#1559=CARTESIAN_POINT('Origin',(-9.526980770803,-6.293184507836,-0.620268185169));
#1560=CARTESIAN_POINT('',(-9.920680770803,-6.293184507836,-0.620268185169));
#1561=CARTESIAN_POINT('',(-9.920680770803,-6.293184507836,0.370331814831));
#1562=CARTESIAN_POINT('',(-10.3143807708,-6.293184507836,-0.620268185169));
#1563=CARTESIAN_POINT('Origin',(-9.526980770803,-6.293184507836,-1.001268185169));
#1564=CARTESIAN_POINT('',(-10.3143807708,-6.293184507836,-0.112268185169));
#1565=CARTESIAN_POINT('',(-9.920680770803,-6.293184507836,-0.112268185169));
#1566=CARTESIAN_POINT('',(-3.430980770803,-6.293184507836,-0.112268185169));
#1567=CARTESIAN_POINT('',(-10.3143807708,-6.293184507836,-0.620268185169));
#1568=CARTESIAN_POINT('',(-9.920680770803,-6.293184507836,0.370331814831));
#1569=CARTESIAN_POINT('Origin',(-4.218380770803,-6.293184507836,-1.407668185169));
#1570=CARTESIAN_POINT('',(-3.824680770803,-6.293184507836,-0.620268185169));
#1571=CARTESIAN_POINT('',(-3.430980770803,-6.293184507836,-0.620268185169));
#1572=CARTESIAN_POINT('',(-3.837380770803,-6.293184507836,-0.620268185169));
#1573=CARTESIAN_POINT('',(-3.824680770803,-6.293184507836,-1.302176588109));
#1574=CARTESIAN_POINT('',(-3.824680770803,-6.293184507836,0.370331814831));
#1575=CARTESIAN_POINT('Origin',(-4.218380770803,-6.293184507836,-0.620268185169));
#1576=CARTESIAN_POINT('Origin',(-5.031180770803,4.806615492164,0.167131814831));
#1577=CARTESIAN_POINT('',(-3.837380770803,-1.543384507836,0.167131814831));
#1578=CARTESIAN_POINT('',(-6.110680770803,-1.543384507836,0.676875073736));
#1579=CARTESIAN_POINT('Origin',(-5.031180770803,-1.543384507836,0.167131814831));
#1580=CARTESIAN_POINT('',(-6.110680770803,-0.374984507836,0.676875073736));
#1581=CARTESIAN_POINT('',(-6.110680770803,4.806615492164,0.676875073736));
#1582=CARTESIAN_POINT('',(-6.215506167628,-0.374984507836,0.01702587079645));
#1583=CARTESIAN_POINT('Origin',(-5.031180770803,-0.374984507836,0.167131814831));
#1584=CARTESIAN_POINT('',(-6.215506167628,4.806615492164,0.01702587079645));
#1585=CARTESIAN_POINT('',(-6.215506167628,4.806615492164,0.01702587079645));
#1586=CARTESIAN_POINT('',(-3.837380770803,4.806615492164,0.167131814831));
#1587=CARTESIAN_POINT('Origin',(-5.031180770803,4.806615492164,0.167131814831));
#1588=CARTESIAN_POINT('',(-3.837380770803,4.806615492164,0.167131814831));
#1589=CARTESIAN_POINT('Origin',(-6.618680770803,4.806615492164,-0.03407402504494));
#1590=CARTESIAN_POINT('',(-6.618680770803,-0.374984507836,-0.03407402504494));
#1591=CARTESIAN_POINT('',(-6.618680770803,-0.374984507836,-0.03407402504494));
#1592=CARTESIAN_POINT('',(-6.618680770803,4.806615492164,-0.03407402504494));
#1593=CARTESIAN_POINT('',(-6.618680770803,4.806615492164,-0.03407402504494));
#1594=CARTESIAN_POINT('',(-6.618680770803,4.806615492164,-0.03407402504494));
#1595=CARTESIAN_POINT('Origin',(-5.031180770803,4.806615492164,0.167131814831));
#1596=CARTESIAN_POINT('',(-6.110680770803,-0.374984507836,1.348368366077));
#1597=CARTESIAN_POINT('Origin',(-5.031180770803,-0.374984507836,0.167131814831));
#1598=CARTESIAN_POINT('',(-6.110680770803,-1.543384507836,1.348368366077));
#1599=CARTESIAN_POINT('',(-6.110680770803,4.806615492164,1.348368366077));
#1600=CARTESIAN_POINT('',(-3.430980770803,-1.543384507836,0.167131814831));
#1601=CARTESIAN_POINT('Origin',(-5.031180770803,-1.543384507836,0.167131814831));
#1602=CARTESIAN_POINT('',(-3.430980770803,4.806615492164,0.167131814831));
#1603=CARTESIAN_POINT('',(-3.430980770803,4.806615492164,0.167131814831));
#1604=CARTESIAN_POINT('Origin',(-5.031180770803,4.806615492164,0.167131814831));
#1605=CARTESIAN_POINT('Origin',(-4.218380770803,4.806615492164,-0.620268185169));
#1606=CARTESIAN_POINT('',(-4.218380770803,-5.899484507836,-1.407668185169));
#1607=CARTESIAN_POINT('Origin',(-4.21838077082985,-5.89948450781971,-0.620268185189258));
#1608=CARTESIAN_POINT('',(-4.218380770803,4.806615492164,-1.407668185169));
#1609=CARTESIAN_POINT('',(-4.218380770803,4.806615492164,-1.407668185169));
#1610=CARTESIAN_POINT('',(-3.430980770803,4.806615492164,-0.620268185169));
#1611=CARTESIAN_POINT('Origin',(-4.218380770803,4.806615492164,-0.620268185169));
#1612=CARTESIAN_POINT('',(-3.430980770803,4.806615492164,-0.620268185169));
#1613=CARTESIAN_POINT('Origin',(-4.218380770803,4.806615492164,-1.407668185169));
#1614=CARTESIAN_POINT('',(-8.396680770803,-2.584784507836,-1.407668185169));
#1615=CARTESIAN_POINT('',(-8.396680770803,-4.769184507836,-1.407668185169));
#1616=CARTESIAN_POINT('',(-8.396680770803,-2.584784507836,-1.407668185169));
#1617=CARTESIAN_POINT('',(-9.526980770803,-5.899484507836,-1.407668185169));
#1618=CARTESIAN_POINT('',(-8.396680770803,-4.769184507836,-1.407668185169));
#1619=CARTESIAN_POINT('',(-9.526980770803,4.806615492164,-1.407668185169));
#1620=CARTESIAN_POINT('',(-9.526980770803,4.806615492164,-1.407668185169));
#1621=CARTESIAN_POINT('',(-4.218380770803,4.806615492164,-1.407668185169));
#1622=CARTESIAN_POINT('',(-5.348680770803,-4.769184507836,-1.407668185169));
#1623=CARTESIAN_POINT('',(-5.348680770803,-4.769184507836,-1.407668185169));
#1624=CARTESIAN_POINT('',(-5.348680770803,-2.584784507836,-1.407668185169));
#1625=CARTESIAN_POINT('',(-5.348680770803,-2.584784507836,-1.407668185169));
#1626=CARTESIAN_POINT('',(-5.602680770803,-2.330784507836,-1.407668185169));
#1627=CARTESIAN_POINT('Origin',(-5.602680770803,-2.584784507836,-1.407668185169));
#1628=CARTESIAN_POINT('',(-8.142680770803,-2.330784507836,-1.407668185169));
#1629=CARTESIAN_POINT('',(-8.142680770803,-2.330784507836,-1.407668185169));
#1630=CARTESIAN_POINT('Origin',(-8.142680770803,-2.584784507836,-1.407668185169));
#1631=CARTESIAN_POINT('',(-5.142064031043,2.571415492164,-1.407668185169));
#1632=CARTESIAN_POINT('',(-8.603297510562,2.571415492164,-1.407668185169));
#1633=CARTESIAN_POINT('Origin',(-6.872680770803,2.571415492164,-1.407668185169));
#1634=CARTESIAN_POINT('',(-8.603297510562,0.691815492164,-1.407668185169));
#1635=CARTESIAN_POINT('',(-8.603297510562,0.691815492164,-1.407668185169));
#1636=CARTESIAN_POINT('',(-5.142064031043,0.691815492164,-1.407668185169));
#1637=CARTESIAN_POINT('Origin',(-6.872680770803,0.691815492164,-1.407668185169));
#1638=CARTESIAN_POINT('',(-5.142064031043,2.571415492164,-1.407668185169));
#1639=CARTESIAN_POINT('Origin',(-9.526980770803,4.806615492164,-0.620268185169));
#1640=CARTESIAN_POINT('Origin',(-9.52698077077195,-5.89948450780497,-0.620268185114718));
#1641=CARTESIAN_POINT('',(-10.3143807708,4.806615492164,-0.620268185169));
#1642=CARTESIAN_POINT('',(-10.3143807708,4.806615492164,-0.620268185169));
#1643=CARTESIAN_POINT('Origin',(-9.526980770803,4.806615492164,-0.620268185169));
#1644=CARTESIAN_POINT('Origin',(-8.714180770803,4.806615492164,0.167131814831));
#1645=CARTESIAN_POINT('',(-7.634680770803,-1.543384507836,1.348368366077));
#1646=CARTESIAN_POINT('',(-10.3143807708,-1.543384507836,0.167131814831));
#1647=CARTESIAN_POINT('Origin',(-8.714180770803,-1.543384507836,0.167131814831));
#1648=CARTESIAN_POINT('',(-7.634680770803,-0.374984507836,1.348368366077));
#1649=CARTESIAN_POINT('',(-7.634680770803,4.806615492164,1.348368366077));
#1650=CARTESIAN_POINT('',(-7.126680770803,-0.374984507836,-0.03407402504494));
#1651=CARTESIAN_POINT('Origin',(-8.714180770803,-0.374984507836,0.167131814831));
#1652=CARTESIAN_POINT('',(-7.126680770803,4.806615492164,-0.03407402504494));
#1653=CARTESIAN_POINT('',(-7.126680770803,4.806615492164,-0.03407402504494));
#1654=CARTESIAN_POINT('',(-10.3143807708,4.806615492164,0.167131814831));
#1655=CARTESIAN_POINT('Origin',(-8.714180770803,4.806615492164,0.167131814831));
#1656=CARTESIAN_POINT('',(-10.3143807708,4.806615492164,0.167131814831));
#1657=CARTESIAN_POINT('Origin',(-7.529855373977,4.806615492164,0.01702587079645));
#1658=CARTESIAN_POINT('',(-7.529855373977,-0.374984507836,0.01702587079645));
#1659=CARTESIAN_POINT('',(-7.529855373977,-0.374984507836,0.01702587079645));
#1660=CARTESIAN_POINT('',(-7.529855373977,4.806615492164,0.01702587079645));
#1661=CARTESIAN_POINT('',(-7.529855373977,4.806615492164,0.01702587079645));
#1662=CARTESIAN_POINT('',(-7.529855373977,4.806615492164,0.01702587079645));
#1663=CARTESIAN_POINT('Origin',(-8.714180770803,4.806615492164,0.167131814831));
#1664=CARTESIAN_POINT('',(-7.634680770803,-0.374984507836,0.676875073736));
#1665=CARTESIAN_POINT('Origin',(-8.714180770803,-0.374984507836,0.167131814831));
#1666=CARTESIAN_POINT('',(-7.634680770803,-1.543384507836,0.676875073736));
#1667=CARTESIAN_POINT('',(-7.634680770803,4.806615492164,0.676875073736));
#1668=CARTESIAN_POINT('',(-9.907980770803,-1.543384507836,0.167131814831));
#1669=CARTESIAN_POINT('Origin',(-8.714180770803,-1.543384507836,0.167131814831));
#1670=CARTESIAN_POINT('',(-9.907980770803,4.806615492164,0.167131814831));
#1671=CARTESIAN_POINT('',(-9.907980770803,4.806615492164,0.167131814831));
#1672=CARTESIAN_POINT('Origin',(-8.714180770803,4.806615492164,0.167131814831));
#1673=CARTESIAN_POINT('Origin',(-9.907980770803,4.806615492164,-0.620268185169));
#1674=CARTESIAN_POINT('',(-9.907980770803,-1.543384507836,-0.112268185169));
#1675=CARTESIAN_POINT('',(-9.907980770803,-1.543384507836,-0.620268185169));
#1676=CARTESIAN_POINT('',(-9.907980770803,-6.280484507836,-0.112268185169));
#1677=CARTESIAN_POINT('',(-9.907980770803,4.806615492164,-0.112268185169));
#1678=CARTESIAN_POINT('',(-9.907980770803,-6.280484507836,-0.620268185169));
#1679=CARTESIAN_POINT('',(-9.907980770803,-6.280484507836,-0.620268185169));
#1680=CARTESIAN_POINT('',(-9.907980770803,4.806615492164,-0.620268185169));
#1681=CARTESIAN_POINT('',(-9.907980770803,4.806615492164,-0.620268185169));
#1682=CARTESIAN_POINT('',(-9.907980770803,4.806615492164,-0.620268185169));
#1683=CARTESIAN_POINT('Origin',(-9.526980770803,4.806615492164,-0.620268185169));
#1684=CARTESIAN_POINT('',(-9.526980770803,-5.899484507836,-1.001268185169));
#1685=CARTESIAN_POINT('Origin',(-9.52698077080414,-5.89948450783629,-0.620268185169782));
#1686=CARTESIAN_POINT('',(-9.526980770803,4.806615492164,-1.001268185169));
#1687=CARTESIAN_POINT('',(-9.526980770803,4.806615492164,-1.001268185169));
#1688=CARTESIAN_POINT('Origin',(-9.526980770803,4.806615492164,-0.620268185169));
#1689=CARTESIAN_POINT('Origin',(-4.218380770803,4.806615492164,-1.001268185169));
#1690=CARTESIAN_POINT('',(-8.396680770803,-4.769184507836,-1.001268185169));
#1691=CARTESIAN_POINT('',(-1.519630770803,2.107865492164,-1.001268185169));
#1692=CARTESIAN_POINT('',(-8.396680770803,-2.584784507836,-1.001268185169));
#1693=CARTESIAN_POINT('',(-8.396680770803,4.806615492164,-1.001268185169));
#1694=CARTESIAN_POINT('',(-8.142680770803,-2.330784507836,-1.001268185169));
#1695=CARTESIAN_POINT('Origin',(-8.142680770803,-2.584784507836,-1.001268185169));
#1696=CARTESIAN_POINT('',(-5.602680770803,-2.330784507836,-1.001268185169));
#1697=CARTESIAN_POINT('',(-4.218380770803,-2.330784507836,-1.001268185169));
#1698=CARTESIAN_POINT('',(-5.348680770803,-2.584784507836,-1.001268185169));
#1699=CARTESIAN_POINT('Origin',(-5.602680770803,-2.584784507836,-1.001268185169));
#1700=CARTESIAN_POINT('',(-5.348680770803,-4.769184507836,-1.001268185169));
#1701=CARTESIAN_POINT('',(-5.348680770803,4.806615492164,-1.001268185169));
#1702=CARTESIAN_POINT('',(-4.218380770803,-5.899484507836,-1.001268185169));
#1703=CARTESIAN_POINT('',(-9.571430770803,-0.546434507836,-1.001268185169));
#1704=CARTESIAN_POINT('',(-4.218380770803,4.806615492164,-1.001268185169));
#1705=CARTESIAN_POINT('',(-4.218380770803,4.806615492164,-1.001268185169));
#1706=CARTESIAN_POINT('',(-4.218380770803,4.806615492164,-1.001268185169));
#1707=CARTESIAN_POINT('',(-8.472880770803,0.691815492164,-1.001268185169));
#1708=CARTESIAN_POINT('',(-8.472880770803,2.571415492164,-1.001268185169));
#1709=CARTESIAN_POINT('',(-8.472880770803,2.571415492164,-1.001268185169));
#1710=CARTESIAN_POINT('',(-5.272480770803,2.571415492164,-1.001268185169));
#1711=CARTESIAN_POINT('Origin',(-6.872680770803,2.571415492164,-1.001268185169));
#1712=CARTESIAN_POINT('',(-5.272480770803,0.691815492164,-1.001268185169));
#1713=CARTESIAN_POINT('',(-5.272480770803,2.571415492164,-1.001268185169));
#1714=CARTESIAN_POINT('Origin',(-6.872680770803,0.691815492164,-1.001268185169));
#1715=CARTESIAN_POINT('Origin',(-4.218380770803,4.806615492164,-0.620268185169));
#1716=CARTESIAN_POINT('',(-3.837380770803,-6.280484507836,-0.620268185169));
#1717=CARTESIAN_POINT('Origin',(-4.21838077080368,-5.89948450783532,-0.620268185168318));
#1718=CARTESIAN_POINT('',(-3.837380770803,4.806615492164,-0.620268185169));
#1719=CARTESIAN_POINT('',(-3.837380770803,4.806615492164,-0.620268185169));
#1720=CARTESIAN_POINT('Origin',(-4.218380770803,4.806615492164,-0.620268185169));
#1721=CARTESIAN_POINT('Origin',(-3.837380770803,4.806615492164,-0.620268185169));
#1722=CARTESIAN_POINT('',(-3.837380770803,-6.280484507836,-0.112268185169));
#1723=CARTESIAN_POINT('',(-3.837380770803,-1.543384507836,-0.112268185169));
#1724=CARTESIAN_POINT('',(-3.837380770803,4.806615492164,-0.112268185169));
#1725=CARTESIAN_POINT('',(-3.837380770803,-1.543384507836,-0.620268185169));
#1726=CARTESIAN_POINT('',(-3.837380770803,4.806615492164,-0.620268185169));
#1727=CARTESIAN_POINT('',(-3.837380770803,-6.280484507836,-0.620268185169));
#1728=CARTESIAN_POINT('Origin',(-5.031180770803,-6.293184507836,0.167131814831));
#1729=CARTESIAN_POINT('',(-3.430980770803,-6.293184507836,-0.112268185169));
#1730=CARTESIAN_POINT('',(-3.430980770803,-6.293184507836,-0.620268185169));
#1731=CARTESIAN_POINT('',(-3.824680770803,-6.293184507836,-0.112268185169));
#1732=CARTESIAN_POINT('',(-3.430980770803,-6.293184507836,-0.112268185169));
#1733=CARTESIAN_POINT('',(-3.824680770803,-6.293184507836,0.167131814831));
#1734=CARTESIAN_POINT('Origin',(-10.3143807708,4.806615492164,0.167131814831));
#1735=CARTESIAN_POINT('',(-10.3143807708,4.806615492164,0.167131814831));
#1736=CARTESIAN_POINT('Origin',(-9.526980770803,4.806615492164,-1.407668185169));
#1737=CARTESIAN_POINT('',(-9.526980770803,4.806615492164,-1.407668185169));
#1738=CARTESIAN_POINT('',(-9.907980770803,4.806615492164,-0.620268185169));
#1739=CARTESIAN_POINT('Origin',(-9.907980770803,4.806615492164,-0.620268185169));
#1740=CARTESIAN_POINT('',(-4.218380770803,4.806615492164,-1.001268185169));
#1741=CARTESIAN_POINT('Origin',(-3.430980770803,4.806615492164,-0.620268185169));
#1742=CARTESIAN_POINT('',(-3.430980770803,4.806615492164,-0.620268185169));
#1743=CARTESIAN_POINT('Origin',(-4.218380770803,4.806615492164,-1.001268185169));
#1744=CARTESIAN_POINT('',(-3.430980770803,4.806615492164,-0.620268185169));
#1745=CARTESIAN_POINT('',(-3.837380770803,4.806615492164,0.167131814831));
#1746=CARTESIAN_POINT('Origin',(-3.837380770803,4.806615492164,0.167131814831));
#1747=CARTESIAN_POINT('Origin',(-3.430980770803,4.806615492164,-0.620268185169));
#1748=CARTESIAN_POINT('',(-3.430980770803,-1.543384507836,-0.112268185169));
#1749=CARTESIAN_POINT('',(-3.430980770803,-1.543384507836,-0.112268185169));
#1750=CARTESIAN_POINT('',(-3.430980770803,-1.543384507836,-0.112268185169));
#1751=CARTESIAN_POINT('Origin',(-10.3143807708,4.806615492164,-0.620268185169));
#1752=CARTESIAN_POINT('',(-10.3143807708,-1.543384507836,-0.112268185169));
#1753=CARTESIAN_POINT('',(-10.3143807708,-1.543384507836,-0.112268185169));
#1754=CARTESIAN_POINT('',(-10.3143807708,4.806615492164,-0.620268185169));
#1755=CARTESIAN_POINT('',(-10.3143807708,-1.543384507836,-0.112268185169));
#1756=CARTESIAN_POINT('Origin',(-5.031180770803,4.806615492164,0.167131814831));
#1757=CARTESIAN_POINT('Origin',(-8.396680770803,-4.769184507836,0.370331814831));
#1758=CARTESIAN_POINT('',(-8.396680770803,-4.769184507836,-0.112268185169));
#1759=CARTESIAN_POINT('',(-8.396680770803,-4.769184507836,0.370331814831));
#1760=CARTESIAN_POINT('Origin',(-8.396680770803,-2.584784507836,0.370331814831));
#1761=CARTESIAN_POINT('',(-8.396680770803,-2.584784507836,0.370331814831));
#1762=CARTESIAN_POINT('Origin',(-8.142680770803,-2.584784507836,0.370331814831));
#1763=CARTESIAN_POINT('',(-8.142680770803,-2.330784507836,0.370331814831));
#1764=CARTESIAN_POINT('Origin',(-8.142680770803,-2.330784507836,0.370331814831));
#1765=CARTESIAN_POINT('',(-5.602680770803,-2.330784507836,0.370331814831));
#1766=CARTESIAN_POINT('Origin',(-5.348680770803,-4.769184507836,0.370331814831));
#1767=CARTESIAN_POINT('',(-5.348680770803,-4.769184507836,-0.112268185169));
#1768=CARTESIAN_POINT('',(-5.348680770803,-4.769184507836,0.370331814831));
#1769=CARTESIAN_POINT('Origin',(-5.348680770803,-2.584784507836,0.370331814831));
#1770=CARTESIAN_POINT('',(-5.348680770803,-2.584784507836,0.370331814831));
#1771=CARTESIAN_POINT('Origin',(-5.602680770803,-2.584784507836,0.370331814831));
#1772=CARTESIAN_POINT('Origin',(-3.430980770803,-6.293184507836,-0.112268185169));
#1773=CARTESIAN_POINT('',(-6.110680770803,-1.543384507836,-0.112268185169));
#1774=CARTESIAN_POINT('Origin',(-6.110680770803,-1.543384507836,-0.112268185169));
#1775=CARTESIAN_POINT('',(-6.110680770803,-1.543384507836,-0.112268185169));
#1776=CARTESIAN_POINT('Origin',(-6.110680770803,-1.543384507836,-0.112268185169));
#1777=CARTESIAN_POINT('',(-6.110680770803,-0.374984507836,-0.112268185169));
#1778=CARTESIAN_POINT('Origin',(-6.110680770803,-0.374984507836,-0.112268185169));
#1779=CARTESIAN_POINT('Origin',(-7.634680770803,-1.543384507836,-0.112268185169));
#1780=CARTESIAN_POINT('',(-7.634680770803,-1.543384507836,-0.112268185169));
#1781=CARTESIAN_POINT('',(-7.634680770803,-0.374984507836,-0.112268185169));
#1782=CARTESIAN_POINT('Origin',(-7.634680770803,-1.543384507836,-0.112268185169));
#1783=CARTESIAN_POINT('',(-7.634680770803,-1.543384507836,-0.112268185169));
#1784=CARTESIAN_POINT('Origin',(-3.430980770803,-6.293184507836,-0.112268185169));
#1785=CARTESIAN_POINT('Origin',(-6.110680770803,-0.374984507836,-0.112268185169));
#1786=CARTESIAN_POINT('Origin',(-6.872680770803,2.571415492164,-0.594868185169));
#1787=CARTESIAN_POINT('',(-7.803455158696,2.571415492164,-0.594868185169));
#1788=CARTESIAN_POINT('',(-5.94190638291,2.571415492164,-0.594868185169));
#1789=CARTESIAN_POINT('Origin',(-6.872680770803,2.571415492164,-0.594868185169));
#1790=CARTESIAN_POINT('',(-7.803455158696,0.691815492164,-0.594868185169));
#1791=CARTESIAN_POINT('',(-7.803455158696,0.691815492164,-0.594868185169));
#1792=CARTESIAN_POINT('',(-5.94190638291,0.691815492164,-0.594868185169));
#1793=CARTESIAN_POINT('Origin',(-6.872680770803,0.691815492164,-0.594868185169));
#1794=CARTESIAN_POINT('',(-5.94190638291,0.691815492164,-0.594868185169));
#1795=CARTESIAN_POINT('Origin',(-6.872680770803,2.571415492164,-1.001268185169));
#1796=CARTESIAN_POINT('',(-7.803455158696,2.571415492164,-1.001268185169));
#1797=CARTESIAN_POINT('',(-5.94190638291,2.571415492164,-1.001268185169));
#1798=CARTESIAN_POINT('Origin',(-6.872680770803,2.571415492164,-1.001268185169));
#1799=CARTESIAN_POINT('',(-5.94190638291,0.691815492164,-1.001268185169));
#1800=CARTESIAN_POINT('',(-5.94190638291,0.691815492164,-1.001268185169));
#1801=CARTESIAN_POINT('',(-7.803455158696,0.691815492164,-1.001268185169));
#1802=CARTESIAN_POINT('Origin',(-6.872680770803,0.691815492164,-1.001268185169));
#1803=CARTESIAN_POINT('',(-7.803455158696,0.691815492164,-1.001268185169));
#1804=CARTESIAN_POINT('Origin',(-6.872680770803,2.571415492164,-1.328558393952));
#1805=CARTESIAN_POINT('',(-8.066480770803,2.571415492164,-1.288636381044));
#1806=CARTESIAN_POINT('Origin',(-7.734369413138,2.571415492164,-1.328558393952));
#1807=CARTESIAN_POINT('',(-5.678880770803,2.571415492164,-1.288636381044));
#1808=CARTESIAN_POINT('Origin',(-6.872680770803,2.571415492164,-1.288636381044));
#1809=CARTESIAN_POINT('Origin',(-6.010992128467,2.571415492164,-1.328558393952));
#1810=CARTESIAN_POINT('Origin',(-6.872680770803,2.571415492164,-0.780855379116));
#1811=CARTESIAN_POINT('',(-8.252467964749,2.571415492164,-0.780855379116));
#1812=CARTESIAN_POINT('',(-5.492893576856,2.571415492164,-0.780855379116));
#1813=CARTESIAN_POINT('Origin',(-6.872680770803,2.571415492164,-0.780855379116));
#1814=CARTESIAN_POINT('',(-5.466159887756,2.571415492164,-0.807589068216));
#1815=CARTESIAN_POINT('',(-5.272480770803,2.571415492164,-1.001268185169));
#1816=CARTESIAN_POINT('',(-5.272480770803,2.571415492164,-1.001268185169));
#1817=CARTESIAN_POINT('',(-8.27920165385,2.571415492164,-0.807589068216));
#1818=CARTESIAN_POINT('',(-8.472880770803,2.571415492164,-1.001268185169));
#1819=CARTESIAN_POINT('',(-8.472880770803,2.571415492164,-1.001268185169));
#1820=CARTESIAN_POINT('Origin',(-6.872680770803,2.571415492164,-1.229868185169));
#1821=CARTESIAN_POINT('Origin',(-7.803455158696,2.571415492164,-1.229868185169));
#1822=CARTESIAN_POINT('Origin',(-5.94190638291,2.571415492164,-1.229868185169));
#1823=CARTESIAN_POINT('Origin',(-6.872680770803,0.691815492164,-1.328558393952));
#1824=CARTESIAN_POINT('',(-5.678880770803,0.691815492164,-1.288636381044));
#1825=CARTESIAN_POINT('Origin',(-6.010992128467,0.691815492164,-1.328558393952));
#1826=CARTESIAN_POINT('',(-8.066480770803,0.691815492164,-1.288636381044));
#1827=CARTESIAN_POINT('Origin',(-6.872680770803,0.691815492164,-1.288636381044));
#1828=CARTESIAN_POINT('Origin',(-7.734369413138,0.691815492164,-1.328558393952));
#1829=CARTESIAN_POINT('Origin',(-6.872680770803,0.691815492164,-0.780855379116));
#1830=CARTESIAN_POINT('',(-8.252467964749,0.691815492164,-0.780855379116));
#1831=CARTESIAN_POINT('',(-5.492893576856,0.691815492164,-0.780855379116));
#1832=CARTESIAN_POINT('Origin',(-6.872680770803,0.691815492164,-0.780855379116));
#1833=CARTESIAN_POINT('',(-8.27920165385,0.691815492164,-0.807589068216));
#1834=CARTESIAN_POINT('',(-8.472880770803,0.691815492164,-1.001268185169));
#1835=CARTESIAN_POINT('',(-8.472880770803,0.691815492164,-1.001268185169));
#1836=CARTESIAN_POINT('',(-5.466159887756,0.691815492164,-0.807589068216));
#1837=CARTESIAN_POINT('',(-5.272480770803,0.691815492164,-1.001268185169));
#1838=CARTESIAN_POINT('',(-5.272480770803,0.691815492164,-1.001268185169));
#1839=CARTESIAN_POINT('Origin',(-6.872680770803,0.691815492164,-1.229868185169));
#1840=CARTESIAN_POINT('Origin',(-7.803455158696,0.691815492164,-1.229868185169));
#1841=CARTESIAN_POINT('Origin',(-5.94190638291,0.691815492164,-1.229868185169));
#1842=CARTESIAN_POINT('Origin',(-8.472880770803,0.691815492164,-1.001268185169));
#1843=CARTESIAN_POINT('',(-8.27920165385,0.691815492164,-0.807589068216));
#1844=CARTESIAN_POINT('Origin',(-7.803455158696,0.691815492164,-1.233227940557));
#1845=CARTESIAN_POINT('Origin',(-7.803455158696,2.571415492164,-1.233227940557));
#1846=CARTESIAN_POINT('Origin',(-7.803455158696,0.691815492164,-1.233227940557));
#1847=CARTESIAN_POINT('Origin',(-5.94190638291,0.691815492164,-1.233227940557));
#1848=CARTESIAN_POINT('Origin',(-5.94190638291,2.571415492164,-1.233227940557));
#1849=CARTESIAN_POINT('Origin',(-5.94190638291,0.691815492164,-1.233227940557));
#1850=CARTESIAN_POINT('',(-5.466159887756,0.691815492164,-0.807589068216));
#1851=CARTESIAN_POINT('Origin',(-5.272480770803,0.691815492164,-1.001268185169));
#1852=CARTESIAN_POINT('Origin',(-7.734369413138,0.691815492164,-1.328558393952));
#1853=CARTESIAN_POINT('Origin',(-7.734369413138,0.691815492164,-1.328558393952));
#1854=CARTESIAN_POINT('Origin',(-7.734369413138,2.571415492164,-1.328558393952));
#1855=CARTESIAN_POINT('Origin',(-7.734369413138,2.571415492164,-1.328558393952));
#1856=CARTESIAN_POINT('Origin',(-7.734369413138,0.691815492164,-1.328558393952));
#1857=CARTESIAN_POINT('',(-8.066480770803,0.691815492164,-1.288636381044));
#1858=CARTESIAN_POINT('Origin',(-6.010992128467,0.691815492164,-1.328558393952));
#1859=CARTESIAN_POINT('',(-5.678880770803,0.691815492164,-1.288636381044));
#1860=CARTESIAN_POINT('Origin',(-5.142064031043,0.691815492164,-0.137668185169));
#1861=CARTESIAN_POINT('Origin',(-5.142064031043,2.571415492164,-0.137668185169));
#1862=CARTESIAN_POINT('Origin',(-5.142064031043,0.691815492164,-0.137668185169));
#1863=CARTESIAN_POINT('Origin',(-6.872680770803,0.691815492164,-0.137668185169));
#1864=CARTESIAN_POINT('Origin',(-8.603297510562,0.691815492164,-0.137668185169));
#1865=CARTESIAN_POINT('Origin',(-6.872680770803,2.571415492164,-0.137668185169));
#1866=CARTESIAN_POINT('Origin',(-8.603297510562,2.571415492164,-0.137668185169));
#1867=CARTESIAN_POINT('Origin',(-8.603297510562,0.691815492164,-0.137668185169));
#1868=UNCERTAINTY_MEASURE_WITH_UNIT(LENGTH_MEASURE(0.01),#1872,
'DISTANCE_ACCURACY_VALUE',
'Maximum model space distance between geometric entities at asserted c
onnectivities');
#1869=UNCERTAINTY_MEASURE_WITH_UNIT(LENGTH_MEASURE(0.01),#1872,
'DISTANCE_ACCURACY_VALUE',
'Maximum model space distance between geometric entities at asserted c
onnectivities');
#1870=(
GEOMETRIC_REPRESENTATION_CONTEXT(3)
GLOBAL_UNCERTAINTY_ASSIGNED_CONTEXT((#1868))
GLOBAL_UNIT_ASSIGNED_CONTEXT((#1872,#1874,#1875))
REPRESENTATION_CONTEXT('','3D')
);
#1871=(
GEOMETRIC_REPRESENTATION_CONTEXT(3)
GLOBAL_UNCERTAINTY_ASSIGNED_CONTEXT((#1869))
GLOBAL_UNIT_ASSIGNED_CONTEXT((#1872,#1874,#1875))
REPRESENTATION_CONTEXT('','3D')
);
#1872=(
LENGTH_UNIT()
NAMED_UNIT(*)
SI_UNIT(.MILLI.,.METRE.)
);
#1873=(
LENGTH_UNIT()
NAMED_UNIT(*)
SI_UNIT($,.METRE.)
);
#1874=(
NAMED_UNIT(*)
PLANE_ANGLE_UNIT()
SI_UNIT($,.RADIAN.)
);
#1875=(
NAMED_UNIT(*)
SI_UNIT($,.STERADIAN.)
SOLID_ANGLE_UNIT()
);
#1876=SHAPE_DEFINITION_REPRESENTATION(#1877,#1878);
#1877=PRODUCT_DEFINITION_SHAPE('',$,#1880);
#1878=SHAPE_REPRESENTATION('',(#1098),#1870);
#1879=PRODUCT_DEFINITION_CONTEXT('part definition',#1884,'design');
#1880=PRODUCT_DEFINITION('XFCN 507','XFCN 507 v1',#1881,#1879);
#1881=PRODUCT_DEFINITION_FORMATION('',$,#1886);
#1882=PRODUCT_RELATED_PRODUCT_CATEGORY('XFCN 507 v1','XFCN 507 v1',(#1886));
#1883=APPLICATION_PROTOCOL_DEFINITION('international standard',
'automotive_design',2009,#1884);
#1884=APPLICATION_CONTEXT(
'Core Data for Automotive Mechanical Design Process');
#1885=PRODUCT_CONTEXT('part definition',#1884,'mechanical');
#1886=PRODUCT('XFCN 507','XFCN 507 v1',$,(#1885));
#1887=PRESENTATION_STYLE_ASSIGNMENT((#1889));
#1888=PRESENTATION_STYLE_ASSIGNMENT((#1890));
#1889=SURFACE_STYLE_USAGE(.BOTH.,#1891);
#1890=SURFACE_STYLE_USAGE(.BOTH.,#1892);
#1891=SURFACE_SIDE_STYLE('',(#1893));
#1892=SURFACE_SIDE_STYLE('',(#1894));
#1893=SURFACE_STYLE_FILL_AREA(#1895);
#1894=SURFACE_STYLE_FILL_AREA(#1896);
#1895=FILL_AREA_STYLE('Steel - Satin',(#1897));
#1896=FILL_AREA_STYLE('Opaque(203,210,239)',(#1898));
#1897=FILL_AREA_STYLE_COLOUR('Steel - Satin',#1899);
#1898=FILL_AREA_STYLE_COLOUR('Opaque(203,210,239)',#1900);
#1899=COLOUR_RGB('Steel - Satin',0.627450980392157,0.627450980392157,0.627450980392157);
#1900=COLOUR_RGB('Opaque(203,210,239)',0.796078431372549,0.823529411764706,
0.937254901960784);
ENDSEC;
END-ISO-10303-21;
